<svg width="16" height="25" viewBox="0 0 16 25" fill="none" xmlns="http://www.w3.org/2000/svg">
<path d="M13.92 2.03125C12.64 0.625 10.56 0 7.84 0H1.92V17.6562H0V19.5312H1.92V25H4.16V19.5312H10.88V17.6562H4.16V15.1562H8C9.28 15.1562 10.4 15 11.36 14.5312C12.32 14.2188 13.28 13.5938 13.92 12.9688C14.56 12.3438 15.2 11.4062 15.52 10.4688C15.84 9.53125 16.16 8.4375 16.16 7.34375C16 5.15625 15.36 3.28125 13.92 2.03125ZM13.76 7.5C13.76 8.28125 13.6 9.0625 13.28 9.6875C13.12 10.4688 12.8 11.0938 12.16 11.5625C11.68 12.0312 11.2 12.3438 10.4 12.6563C9.6 12.9688 8.8 13.125 7.84 13.125H4.16V2.03125H8C9.92 2.03125 11.52 2.5 12.48 3.4375C13.28 4.375 13.76 5.78125 13.76 7.5Z" fill="#FFB41D"/>
</svg>
