<svg width="200" height="32" viewBox="0 0 200 32" fill="none" xmlns="http://www.w3.org/2000/svg">
<g clip-path="url(#clip0)">
<path d="M42.7484 4.83832L44.7931 0H40.4659V4.83832H42.7484Z" fill="#BE8F2D"/>
<path d="M45.7441 27.8323L42.5582 7.28143H40.4659V31.9521L45.7441 27.8323Z" fill="#BE8F2D"/>
<path d="M38.231 4.83832H40.4659V0H36.1388L38.231 4.83832Z" fill="#E5B828"/>
<path d="M35.1879 27.6407L40.4185 32L40.466 31.9521V7.28143H38.136L35.1879 27.6407Z" fill="#E5B828"/>
<path d="M106.752 20.6467L102.33 7.23352H98.6686L94.2463 20.5988L89.9192 7.28142H84.9739L85.0214 7.37723H84.9739L92.2492 28.4072H96.0057L100.476 15.2814V15.1856L104.945 28.3593H108.654L115.977 7.28142H111.127L106.752 20.6467Z" fill="black"/>
<path d="M129.244 6.89819C126.201 6.89819 123.585 7.99999 121.541 10.1078C119.496 12.2156 118.45 14.8024 118.45 17.7724C118.45 20.7425 119.496 23.3293 121.493 25.4371C123.538 27.5449 126.106 28.6467 129.149 28.6467C132.192 28.6467 134.807 27.5449 136.852 25.4371C138.897 23.3293 139.99 20.7425 139.99 17.7724C139.99 14.8024 138.944 12.2156 136.9 10.1078C134.902 7.95209 132.287 6.89819 129.244 6.89819ZM133.571 22.4192C132.43 23.6647 131.003 24.2874 129.244 24.2874C127.532 24.2874 126.106 23.6647 124.917 22.4192C123.728 21.1257 123.157 19.6407 123.157 17.7724C123.157 15.9042 123.728 14.3712 124.869 13.0778C126.01 11.8323 127.389 11.2096 129.196 11.2096C130.908 11.2096 132.335 11.8323 133.524 13.0778C134.712 14.3712 135.33 15.9042 135.33 17.7245C135.33 19.6407 134.76 21.1736 133.571 22.4192Z" fill="black"/>
<path d="M151.688 8.52695C151.07 8.95808 150.499 9.48503 150.024 10.0599V7.28144H145.411V28.1677H150.024V19.6886C150.024 17.1497 150.642 15.1856 151.926 13.8443C153.162 12.503 154.731 11.8323 156.633 11.8323H157.775V6.99401L156.919 6.94611C154.922 6.89821 153.21 7.42515 151.688 8.52695Z" fill="black"/>
<path d="M175.844 7.28143L166.904 16.6706V6.89819H162.292V28.2156H166.904V22.6587L169.758 19.7844L176.177 28.2156H181.836L172.991 16.479L181.883 7.28143H175.844Z" fill="black"/>
<path d="M199.429 19.3054C199.049 18.5389 198.431 17.9162 197.622 17.3892C196.909 16.9581 196.243 16.5749 195.625 16.3353C195.007 16.0958 194.246 15.8084 193.343 15.521C192.677 15.2814 192.154 15.1377 191.821 15.0419C191.536 14.9461 191.155 14.8024 190.632 14.6108C190.062 14.3713 189.777 14.1796 189.681 14.1317C189.491 13.988 189.349 13.7964 189.206 13.6048C189.111 13.4611 189.063 13.3174 189.063 13.1737C189.063 12.5988 189.253 12.2156 189.729 11.8323C190.252 11.4491 190.918 11.2096 191.821 11.2096C193.486 11.2096 195.197 11.7844 196.909 12.8862L197.718 13.4132L199.952 9.72456L199.239 9.24551C197.004 7.76049 194.532 6.99402 191.916 6.99402C189.824 6.99402 188.065 7.56887 186.686 8.71857C185.259 9.91617 184.546 11.4491 184.546 13.3653C184.546 14.3713 184.736 15.2814 185.164 16.0479C185.592 16.8144 186.21 17.485 187.066 17.9641C187.827 18.3952 188.493 18.7305 189.111 18.9701C189.681 19.2096 190.49 19.4491 191.488 19.7365C192.962 20.1677 194.104 20.5988 194.817 21.0299C195.34 21.3174 195.578 21.7006 195.578 22.2276C195.578 22.8982 195.34 23.3773 194.817 23.7605C194.246 24.1916 193.486 24.4311 192.534 24.4311C190.537 24.4311 188.493 23.6647 186.543 22.1796L185.782 21.6048L183.31 25.1018L183.975 25.6287C185.117 26.5389 186.448 27.3054 187.922 27.8323C189.396 28.3593 190.918 28.6467 192.392 28.6467C194.532 28.6467 196.339 28.0719 197.813 26.9222C199.287 25.7246 200.048 24.0958 200.048 22.0359C200 20.9341 199.81 20.0719 199.429 19.3054Z" fill="black"/>
<path d="M21.7784 20.6467L17.3562 7.23352H13.6947L9.27247 20.5988L4.94532 7.28142H0L7.27532 28.3593H11.0319L15.5017 15.1856L19.9715 28.3593H23.6805L31.0033 7.28142H26.1531L21.7784 20.6467Z" fill="black"/>
<path d="M65.8583 7.28143L56.9663 16.6707V7.28143H52.3063V28.2156H56.9663V22.6587L59.8194 19.7844L66.1912 28.2156H71.8498L63.0053 16.479L71.9449 7.28143H65.8583Z" fill="black"/>
<path d="M80.3614 7.28143H75.3209V12.2635H80.3614V7.28143Z" fill="black"/>
<path d="M80.1237 14.5629H75.5112V28.1677H80.1237V14.5629Z" fill="black"/>
</g>
<defs>
<clipPath id="clip0">
<rect width="200" height="32" fill="white"/>
</clipPath>
</defs>
</svg>
