<svg width="174" height="103" viewBox="0 0 174 103" fill="none" xmlns="http://www.w3.org/2000/svg">
<path d="M139.518 101.731H137.396V53.615H53.5793V101.414H51.4573V51.5H139.518V101.731Z" fill="#DADADA"/>
<path d="M85.0902 102.26H60.6878V65.7764H85.0902V102.26ZM62.8098 100.145H82.9683V67.8914H62.8098V100.145Z" fill="#DADADA"/>
<path d="M106.416 93.2712H91.4561V65.7764H106.416V93.2712ZM93.578 91.1562H104.294V67.8914H93.578V91.1562Z" fill="#DADADA"/>
<path d="M119.254 93.2712H104.294V65.7764H119.254V93.2712ZM106.416 91.1562H117.132V67.8914H106.416V91.1562Z" fill="#DADADA"/>
<path d="M132.091 93.2712H117.132V65.7764H132.091V93.2712ZM119.254 91.1562H129.97V67.8914H119.254V91.1562Z" fill="#DADADA"/>
<path d="M147.157 53.6148H43.8183V42.9341H147.263V53.6148H147.157ZM45.9402 51.4998H145.141V45.0491H45.9402V51.4998Z" fill="#DADADA"/>
<path d="M174 100.885H0V103H174V100.885Z" fill="#DADADA"/>
<path d="M173.257 100.885H171.135C171.135 96.6549 167.74 93.4824 163.602 93.4824C162.754 93.4824 161.799 93.6939 160.95 94.1169L160.101 94.4341L159.677 93.6939C158.298 91.4731 155.857 90.0984 153.311 90.0984C149.173 90.0984 145.778 93.3766 145.778 97.6066H143.656C143.656 92.3191 148.006 87.9834 153.311 87.9834C156.388 87.9834 159.146 89.4639 160.95 91.7904C161.799 91.5789 162.648 91.2616 163.602 91.2616C168.907 91.3674 173.257 95.5974 173.257 100.885Z" fill="#DADADA"/>
<path d="M71.0854 78.6777H68.9634V87.1377H71.0854V78.6777Z" fill="#DADADA"/>
<path d="M23.5536 102.154C20.0524 99.4046 18.1427 95.1746 18.1427 90.0987C18.1427 81.8502 24.7207 75.0822 32.9963 74.765C36.0732 68.42 41.6963 63.9785 48.6988 62.8153C49.8658 62.6038 50.9268 62.498 51.9878 62.498V64.613C50.9268 64.613 50.078 64.7188 49.0171 64.8245C42.5451 65.882 37.1341 70.112 34.4817 76.1397L34.2695 76.7742H33.4207C26.2061 76.7742 20.2646 82.6962 20.2646 89.9929C20.2646 94.3286 21.8561 98.0299 24.8268 100.356L23.5536 102.154Z" fill="#DADADA"/>
<path d="M16.9756 25.8027H11.6707V27.9177H16.9756V25.8027Z" fill="#DADADA"/>
<path d="M87 20.5156H78.5122V22.6306H87V20.5156Z" fill="#DADADA"/>
<path d="M161.268 32.1479H138.988V34.2629H161.268V32.1479Z" fill="#DADADA"/>
<path d="M58.778 27.9179H24.4024V25.8029H33.739C32.7841 24.1109 32.3598 21.6786 32.3598 19.8809C32.3598 14.4877 36.6037 10.152 41.8024 10.152C43.2878 10.152 44.561 10.4692 45.728 10.9979C46.8951 4.65298 52.3061 0 58.778 0C66.0988 0 72.0402 5.92197 72.0402 13.2187C72.0402 16.6027 70.8732 20.1982 68.9634 22.4189C67.5841 24.0051 63.8707 27.9179 58.778 27.9179ZM35.4366 25.8029H58.6719C62.8098 25.8029 66.0988 22.4189 67.2659 21.0441C68.7512 19.2464 69.8122 16.0739 69.8122 13.2187C69.9183 7.08522 64.9317 2.11499 58.778 2.11499C52.8366 2.11499 47.9561 6.76797 47.7439 12.6899L47.6378 14.5934L46.0463 13.4302C44.8793 12.5842 43.3939 12.1612 41.8024 12.1612C37.7707 12.1612 34.4817 15.5452 34.4817 19.7752C34.4817 21.4671 35.0122 24.0051 35.9671 25.2741L35.4366 25.8029Z" fill="#DADADA"/>
</svg>
