<svg width="163" height="103" viewBox="0 0 163 103" fill="none" xmlns="http://www.w3.org/2000/svg">
<path d="M128.518 101.731H126.396V53.615H42.5793V101.414H40.4573V51.5H128.518V101.731Z" fill="#DADADA"/>
<path d="M74.0902 102.26H49.6878V65.7764H74.0902V102.26ZM51.8098 100.145H71.9683V67.8914H51.8098V100.145Z" fill="#DADADA"/>
<path d="M95.4158 93.2712H80.4561V65.7764H95.4158V93.2712ZM82.578 91.1562H93.2939V67.8914H82.578V91.1562Z" fill="#DADADA"/>
<path d="M108.254 93.2712H93.2939V65.7764H108.254V93.2712ZM95.4159 91.1562H106.132V67.8914H95.4159V91.1562Z" fill="#DADADA"/>
<path d="M121.091 93.2712H106.132V65.7764H121.091V93.2712ZM108.254 91.1562H118.97V67.8914H108.254V91.1562Z" fill="#DADADA"/>
<path d="M136.157 53.6148H32.8183V42.9341H136.263V53.6148H136.157ZM34.9402 51.4998H134.141V45.0491H34.9402V51.4998Z" fill="#DADADA"/>
<path d="M162.257 100.885H160.135C160.135 96.6549 156.74 93.4824 152.602 93.4824C151.754 93.4824 150.799 93.6939 149.95 94.1169L149.101 94.4341L148.677 93.6939C147.298 91.4731 144.857 90.0984 142.311 90.0984C138.173 90.0984 134.778 93.3766 134.778 97.6066H132.656C132.656 92.3191 137.006 87.9834 142.311 87.9834C145.388 87.9834 148.146 89.4639 149.95 91.7904C150.799 91.5789 151.648 91.2616 152.602 91.2616C157.907 91.3674 162.257 95.5974 162.257 100.885Z" fill="#DADADA"/>
<path d="M60.0854 78.6777H57.9634V87.1377H60.0854V78.6777Z" fill="#DADADA"/>
<path d="M12.5536 102.154C9.05243 99.4046 7.14267 95.1746 7.14267 90.0987C7.14267 81.8502 13.7207 75.0822 21.9963 74.765C25.0732 68.42 30.6963 63.9785 37.6988 62.8153C38.8658 62.6038 39.9268 62.498 40.9878 62.498V64.613C39.9268 64.613 39.078 64.7188 38.0171 64.8245C31.5451 65.882 26.1341 70.112 23.4817 76.1397L23.2695 76.7742H22.4207C15.2061 76.7742 9.26462 82.6962 9.26462 89.9929C9.26462 94.3286 10.8561 98.0299 13.8268 100.356L12.5536 102.154Z" fill="#DADADA"/>
<path d="M5.9756 25.8027H0.670715V27.9177H5.9756V25.8027Z" fill="#DADADA"/>
<path d="M76 20.5156H67.5122V22.6306H76V20.5156Z" fill="#DADADA"/>
<path d="M150.268 32.1479H127.988V34.2629H150.268V32.1479Z" fill="#DADADA"/>
<path d="M47.778 27.9179H13.4024V25.8029H22.739C21.7841 24.1109 21.3598 21.6786 21.3598 19.8809C21.3598 14.4877 25.6037 10.152 30.8024 10.152C32.2878 10.152 33.561 10.4692 34.728 10.9979C35.8951 4.65298 41.3061 0 47.778 0C55.0988 0 61.0402 5.92197 61.0402 13.2187C61.0402 16.6027 59.8732 20.1982 57.9634 22.4189C56.5841 24.0051 52.8707 27.9179 47.778 27.9179ZM24.4366 25.8029H47.6719C51.8098 25.8029 55.0988 22.4189 56.2659 21.0441C57.7512 19.2464 58.8122 16.0739 58.8122 13.2187C58.9183 7.08522 53.9317 2.11499 47.778 2.11499C41.8366 2.11499 36.9561 6.76797 36.7439 12.6899L36.6378 14.5934L35.0463 13.4302C33.8793 12.5842 32.3939 12.1612 30.8024 12.1612C26.7707 12.1612 23.4817 15.5452 23.4817 19.7752C23.4817 21.4671 24.0122 24.0051 24.9671 25.2741L24.4366 25.8029Z" fill="#DADADA"/>
</svg>
