<svg width="97" height="95" viewBox="0 0 97 95" fill="none" xmlns="http://www.w3.org/2000/svg">
<g clip-path="url(#clip0)">
<path d="M78.7845 45.1182H18.3053H2.69195C1.25624 45.1182 0 46.2866 0 47.8145V92.3036C0 93.7416 1.16651 94.9999 2.69195 94.9999H18.3053H78.7845H94.3978C95.8335 94.9999 97.0897 93.8315 97.0897 92.3036V47.8145C97.0897 46.3764 95.9232 45.1182 94.3978 45.1182H78.7845ZM94.3978 92.3036H78.7845H18.3053H2.69195V47.8145H18.3053H78.7845H94.3978V92.3036Z" fill="#ECECEC"/>
<path d="M48.5448 85.4729C40.0203 85.4729 33.111 78.5523 33.111 70.014C33.111 61.4757 40.0203 54.5552 48.5448 54.5552C57.0693 54.5552 63.8889 61.5656 63.8889 70.1039C63.8889 78.6422 56.9796 85.4729 48.5448 85.4729ZM48.5448 57.3414C41.5457 57.3414 35.8029 63.0935 35.8029 70.1039C35.8029 77.1143 41.5457 82.8664 48.5448 82.8664C55.5439 82.8664 61.197 77.1143 61.197 70.1039C61.197 63.0935 55.5439 57.3414 48.5448 57.3414Z" fill="#ECECEC"/>
<path d="M87.0397 89.2481H75.5541V85.653H83.7197C84.2581 83.8555 85.6938 82.4174 87.5781 81.7883V58.3304C85.7835 57.7911 84.3478 56.3531 83.7197 54.4657H75.5541V50.8706H87.0397V52.6681C87.0397 53.9264 88.1165 55.005 89.3728 55.005H91.1674V85.1138H89.3728C88.1165 85.1138 87.0397 86.1923 87.0397 87.4506V89.2481Z" fill="#ECECEC"/>
<path d="M22.6123 89.2481H10.0499V87.4506C10.0499 86.1923 8.97312 85.1138 7.71688 85.1138H5.92224V55.005H7.71688C8.97312 55.005 10.0499 53.9264 10.0499 52.6681V50.8706H22.7918V54.4657H13.2802C12.7419 56.2632 11.3061 57.7013 9.42178 58.3304V81.7883C11.2164 82.3276 12.6521 83.7656 13.2802 85.653H22.5226V89.2481H22.6123Z" fill="#ECECEC"/>
<path d="M12.383 35.8611L11.1267 37.1194L16.2414 42.2424H21.3561L16.062 36.9396C16.9593 35.232 16.9593 33.1648 16.062 31.547L32.6623 14.9198C34.3672 15.8185 36.4311 15.8185 38.0462 14.9198L44.6864 21.5707L47.1989 19.0541L38.2257 10.0664L36.9694 11.3247C36.0721 12.2235 34.6364 12.2235 33.6494 11.3247L32.3931 10.0664L11.1267 31.3673L12.383 32.6255C13.2803 33.5243 13.2803 34.9623 12.383 35.8611Z" fill="#ECECEC"/>
<path d="M8.07586 42.2422H11.8446L3.76873 34.1533L35.1748 2.69631L46.2118 13.7512L74.7465 42.2422H78.5153L48.0962 11.8638L37.0592 0.808893C35.9824 -0.269631 34.3673 -0.269631 33.2905 0.808893L1.88437 32.2658C0.807587 33.3444 0.807587 34.9622 1.88437 36.0407L8.07586 42.2422Z" fill="#ECECEC"/>
<path d="M42.5329 42.2422C42.6226 42.1524 42.7123 41.9726 42.8918 41.8827C47.827 36.9395 55.9029 36.9395 60.8381 41.8827C60.9279 41.9726 61.1073 42.1524 61.1971 42.2422H64.6069C64.0685 41.4334 63.4404 40.6245 62.7225 39.9953C56.7105 33.9736 46.9297 33.9736 40.9177 39.9953C40.1998 40.7143 39.5717 41.5232 39.0333 42.2422H42.5329Z" fill="#ECECEC"/>
</g>
<defs>
<clipPath id="clip0">
<rect width="97" height="95" fill="white"/>
</clipPath>
</defs>
</svg>
