<svg width="331" height="158" viewBox="0 0 331 158" fill="none" xmlns="http://www.w3.org/2000/svg">
<mask id="mask0" mask-type="alpha" maskUnits="userSpaceOnUse" x="0" y="0" width="331" height="352">
<path d="M165.483 351.951C187.844 351.951 209.498 347.296 229.905 338.131C249.605 329.251 267.319 316.577 282.507 300.393C297.695 284.21 309.65 265.413 318.001 244.468C326.622 222.771 331 199.749 331 175.975C331 152.202 326.622 129.18 318.001 107.483C309.65 86.5376 297.728 67.7049 282.507 51.5574C267.285 35.4099 249.605 22.6996 229.905 13.856C209.498 4.65449 187.844 0 165.483 0C143.122 0 121.469 4.65449 101.061 13.8202C81.3609 22.6996 63.6474 35.3741 48.4596 51.5574C33.2718 67.7049 21.3168 86.5376 12.9989 107.483C4.37787 129.18 0 152.238 0 175.975C0 199.713 4.37787 222.771 12.9989 244.468C21.3168 265.413 33.2381 284.246 48.4596 300.393C63.6474 316.541 81.3609 329.251 101.061 338.095C121.469 347.296 143.122 351.951 165.483 351.951ZM165.483 1.07411C256.206 1.07411 329.99 79.5201 329.99 175.975C329.99 272.431 256.206 350.877 165.483 350.877C74.7604 350.877 0.976624 272.431 0.976624 175.975C0.976624 79.5201 74.7604 1.07411 165.483 1.07411Z" fill="#FFD80B"/>
<path d="M165.483 342.498C186.632 342.498 207.14 338.094 226.47 329.394C245.127 321.016 261.864 308.986 276.243 293.698C290.623 278.41 301.938 260.579 309.818 240.78C318.001 220.264 322.143 198.424 322.143 175.939C322.143 153.455 318.001 131.65 309.818 111.099C301.938 91.2635 290.623 73.4691 276.243 58.1809C261.864 42.8927 245.093 30.8626 226.47 22.4845C207.174 13.7842 186.632 9.38037 165.483 9.38037C144.335 9.38037 123.826 13.7842 104.496 22.4845C85.8398 30.8626 69.1029 42.8927 54.7233 58.1809C40.3437 73.4691 29.0286 91.2993 21.1485 111.099C12.9652 131.614 8.82309 153.455 8.82309 175.939C8.82309 198.424 12.9652 220.229 21.1485 240.78C29.0286 260.615 40.3437 278.41 54.7233 293.698C69.1029 308.986 85.8735 321.016 104.496 329.394C123.826 338.094 144.335 342.498 165.483 342.498ZM165.483 10.5261C251.289 10.5261 321.099 84.7472 321.099 175.975C321.099 267.203 251.289 341.424 165.483 341.424C79.6771 341.424 9.86707 267.203 9.86707 175.975C9.86707 84.7472 79.6771 10.5261 165.483 10.5261Z" fill="#FFD80B"/>
<path d="M165.483 333.082C185.419 333.082 204.783 328.929 223.002 320.73C240.58 312.817 256.408 301.503 269.979 287.074C283.551 272.645 294.192 255.854 301.635 237.128C309.346 217.758 313.253 197.171 313.253 175.975C313.253 154.78 309.346 134.192 301.635 114.823C294.192 96.1331 283.551 79.3053 269.979 64.8764C256.408 50.4475 240.614 39.1336 223.002 31.2209C204.783 23.0219 185.419 18.8687 165.483 18.8687C145.547 18.8687 126.183 23.0219 107.965 31.2209C90.386 39.1336 74.5583 50.4475 60.987 64.8764C47.4156 79.3053 36.774 96.0973 29.3317 114.823C21.6199 134.192 17.7135 154.78 17.7135 175.975C17.7135 197.171 21.6199 217.758 29.3317 237.128C36.774 255.818 47.4156 272.645 60.987 287.074C74.5583 301.503 90.3523 312.817 107.965 320.73C126.183 328.929 145.547 333.082 165.483 333.082ZM165.483 19.9428C246.406 19.9428 312.243 89.939 312.243 175.975C312.243 262.012 246.406 332.008 165.483 332.008C84.5601 332.008 18.7238 262.012 18.7238 175.975C18.7238 89.939 84.5601 19.9428 165.483 19.9428Z" fill="#FFD80B"/>
<path d="M165.483 323.63C184.241 323.63 202.426 319.727 219.533 312.029C236.068 304.582 250.919 293.948 263.682 280.379C276.445 266.809 286.447 251.02 293.451 233.44C300.692 215.252 304.362 195.918 304.362 175.975C304.362 156.032 300.692 136.698 293.451 118.51C286.447 100.93 276.445 85.1408 263.682 71.5712C250.919 58.0016 236.068 47.3679 219.533 39.9207C202.426 32.2229 184.241 28.3203 165.483 28.3203C146.726 28.3203 128.541 32.2229 111.433 39.9207C94.8986 47.3679 80.0476 58.0016 67.2844 71.5712C54.5213 85.1408 44.5195 100.93 37.515 118.51C30.2746 136.698 26.6039 156.068 26.6039 175.975C26.6039 195.882 30.2746 215.252 37.515 233.44C44.5195 251.02 54.5213 266.809 67.2844 280.379C80.0476 293.948 94.8986 304.582 111.433 312.029C128.541 319.727 146.726 323.63 165.483 323.63ZM165.483 29.3944C241.49 29.3944 303.352 95.1659 303.352 175.975C303.352 256.784 241.49 322.555 165.483 322.555C89.4768 322.555 27.6142 256.784 27.6142 175.975C27.6142 95.1659 89.4768 29.3944 165.483 29.3944Z" fill="#FFD80B"/>
<path d="M165.483 314.178C183.028 314.178 200.068 310.526 216.098 303.329C231.589 296.383 245.497 286.394 257.418 273.719C269.373 261.009 278.735 246.258 285.268 229.788C292.037 212.746 295.472 194.665 295.472 175.975C295.472 157.286 292.037 139.205 285.268 122.162C278.735 105.693 269.339 90.9057 257.418 78.2311C245.463 65.5208 231.589 55.5674 216.098 48.6215C200.068 41.4249 183.062 37.7729 165.483 37.7729C147.938 37.7729 130.898 41.4249 114.868 48.6215C99.3774 55.5674 85.4693 65.5566 73.548 78.2311C61.5931 90.9415 52.2312 105.693 45.6981 122.162C38.9292 139.205 35.4943 157.286 35.4943 175.975C35.4943 194.665 38.9292 212.746 45.6981 229.788C52.2312 246.258 61.6268 261.045 73.548 273.719C85.5029 286.43 99.3774 296.383 114.868 303.329C130.898 310.526 147.938 314.178 165.483 314.178ZM165.483 38.8471C236.607 38.8471 294.462 100.358 294.462 175.975C294.462 251.593 236.607 313.103 165.483 313.103C94.3597 313.103 36.5046 251.593 36.5046 175.975C36.5046 100.358 94.3597 38.8471 165.483 38.8471Z" fill="#FFD80B"/>
<path d="M165.483 304.761C181.85 304.761 197.711 301.36 212.629 294.629C227.043 288.148 240.008 278.875 251.121 267.024C262.234 255.209 270.99 241.424 277.085 226.1C283.416 210.239 286.615 193.376 286.615 175.975C286.615 158.574 283.416 141.711 277.085 125.85C270.99 110.526 262.268 96.7413 251.121 84.9261C240.008 73.1109 227.043 63.8019 212.629 57.3214C197.711 50.5903 181.85 47.189 165.483 47.189C149.117 47.189 133.255 50.5903 118.337 57.3214C103.924 63.8019 90.9585 73.0751 79.8454 84.9261C68.7324 96.7413 59.9767 110.526 53.8813 125.85C47.5503 141.711 44.3511 158.574 44.3511 175.975C44.3511 193.376 47.5503 210.239 53.8813 226.1C59.9767 241.424 68.6987 255.209 79.8454 267.024C90.9585 278.839 103.924 288.148 118.337 294.629C133.255 301.36 149.117 304.761 165.483 304.761ZM165.483 48.2631C231.724 48.2631 285.605 105.549 285.605 175.975C285.605 246.401 231.724 303.687 165.483 303.687C99.2427 303.687 45.3614 246.401 45.3614 175.975C45.3614 105.549 99.2427 48.2631 165.483 48.2631Z" fill="#FFD80B"/>
<path d="M165.483 295.309C195.455 295.309 223.641 282.885 244.857 260.364C266.073 237.808 277.725 207.84 277.725 175.975C277.725 144.11 266.039 114.142 244.857 91.5855C223.641 69.0292 195.455 56.6411 165.483 56.6411C135.512 56.6411 107.325 69.065 86.1092 91.5855C64.8934 114.142 53.2416 144.11 53.2416 175.975C53.2416 207.84 64.9271 237.808 86.1092 260.364C107.325 282.885 135.512 295.309 165.483 295.309ZM165.483 57.7152C226.807 57.7152 276.715 110.776 276.715 175.975C276.715 241.174 226.807 294.235 165.483 294.235C104.16 294.235 54.2519 241.174 54.2519 175.975C54.2519 110.776 104.16 57.7152 165.483 57.7152Z" fill="#FFD80B"/>
<path d="M165.483 285.857C193.097 285.857 219.061 274.435 238.56 253.669C258.058 232.903 268.834 205.298 268.834 175.975C268.834 146.652 258.092 119.011 238.56 98.2808C219.028 77.5505 193.064 66.0933 165.483 66.0933C137.903 66.0933 111.905 77.5146 92.4065 98.2808C72.9082 119.047 62.1319 146.652 62.1319 175.975C62.1319 205.298 72.8745 232.939 92.4065 253.669C111.939 274.399 137.869 285.857 165.483 285.857ZM165.483 67.1674C221.924 67.1674 267.824 115.968 267.824 175.975C267.824 235.982 221.924 284.782 165.483 284.782C109.042 284.782 63.1422 235.982 63.1422 175.975C63.1422 115.968 109.042 67.1674 165.483 67.1674Z" fill="#FFD80B"/>
<path d="M165.483 276.441C190.706 276.441 214.448 265.986 232.296 247.01C250.144 228.034 259.978 202.828 259.978 175.976C259.978 149.123 250.144 123.917 232.296 104.941C214.448 85.9649 190.74 75.5103 165.483 75.5103C140.26 75.5103 116.518 85.9649 98.6702 104.941C80.822 123.917 70.9886 149.159 70.9886 175.976C70.9886 202.793 80.822 228.034 98.6702 247.01C116.518 265.986 140.26 276.441 165.483 276.441ZM165.483 76.5844C217.041 76.5844 258.967 121.16 258.967 175.976C258.967 230.791 217.041 275.367 165.483 275.367C113.925 275.367 71.9989 230.791 71.9989 175.976C71.9989 121.16 113.925 76.5844 165.483 76.5844Z" fill="#FFD80B"/>
<path d="M165.483 266.989C188.349 266.989 209.834 257.536 225.999 240.315C242.163 223.129 251.087 200.286 251.087 175.975C251.087 151.665 242.197 128.822 225.999 111.636C209.834 94.4504 188.349 84.9624 165.483 84.9624C142.617 84.9624 121.132 94.4146 104.968 111.636C88.8032 128.822 79.8791 151.665 79.8791 175.975C79.8791 200.286 88.7695 223.129 104.968 240.315C121.132 257.536 142.617 266.989 165.483 266.989ZM165.483 86.0365C212.124 86.0365 250.077 126.387 250.077 175.975C250.077 225.564 212.124 265.914 165.483 265.914C118.842 265.914 80.8894 225.564 80.8894 175.975C80.8894 126.387 118.842 86.0365 165.483 86.0365Z" fill="#FFD80B"/>
<path d="M165.483 257.536C185.992 257.536 205.254 249.051 219.735 233.655C234.216 218.26 242.197 197.78 242.197 175.975C242.197 154.171 234.216 133.691 219.735 118.296C205.254 102.9 185.992 94.4146 165.483 94.4146C144.975 94.4146 125.712 102.9 111.231 118.296C96.7507 133.691 88.7696 154.171 88.7696 175.975C88.7696 197.78 96.7507 218.26 111.231 233.655C125.712 249.051 144.975 257.536 165.483 257.536ZM165.483 95.4887C207.241 95.4887 241.187 131.615 241.187 175.975C241.187 220.336 207.208 256.462 165.483 256.462C123.725 256.462 89.7798 220.336 89.7798 175.975C89.7798 131.615 123.725 95.4887 165.483 95.4887Z" fill="#FFD80B"/>
<path d="M165.483 248.12C202.897 248.12 233.34 215.754 233.34 175.976C233.34 136.198 202.897 103.831 165.483 103.831C128.069 103.831 97.6263 136.198 97.6263 175.976C97.6263 215.754 128.069 248.12 165.483 248.12ZM165.483 104.905C202.325 104.905 232.33 136.77 232.33 175.976C232.33 215.181 202.325 247.046 165.483 247.046C128.642 247.046 98.6366 215.181 98.6366 175.976C98.6366 136.77 128.642 104.905 165.483 104.905Z" fill="#FFD80B"/>
<path d="M165.483 238.667C198.014 238.667 224.45 210.526 224.45 175.975C224.45 141.424 197.98 113.283 165.483 113.283C132.986 113.283 106.517 141.424 106.517 175.975C106.517 210.526 132.952 238.667 165.483 238.667ZM165.483 114.357C197.442 114.357 223.439 141.997 223.439 175.975C223.439 209.953 197.442 237.593 165.483 237.593C133.525 237.593 107.527 209.953 107.527 175.975C107.527 141.997 133.525 114.357 165.483 114.357Z" fill="#FFD80B"/>
<path d="M165.483 229.216C193.097 229.216 215.559 205.335 215.559 175.975C215.559 146.616 193.097 122.735 165.483 122.735C137.869 122.735 115.407 146.616 115.407 175.975C115.407 205.335 137.869 229.216 165.483 229.216ZM165.483 123.809C192.559 123.809 214.549 147.225 214.549 175.975C214.549 204.726 192.525 228.142 165.483 228.142C138.441 228.142 116.417 204.726 116.417 175.975C116.417 147.225 138.408 123.809 165.483 123.809Z" fill="#FFD80B"/>
<path d="M165.483 219.799C188.214 219.799 206.702 200.143 206.702 175.975C206.702 151.808 188.214 132.151 165.483 132.151C142.752 132.151 124.264 151.808 124.264 175.975C124.264 200.143 142.752 219.799 165.483 219.799ZM165.483 133.225C187.642 133.225 205.692 152.38 205.692 175.975C205.692 199.57 187.676 218.725 165.483 218.725C143.291 218.725 125.274 199.57 125.274 175.975C125.274 152.38 143.324 133.225 165.483 133.225Z" fill="#FFD80B"/>
<path d="M165.483 210.347C183.298 210.347 197.812 194.915 197.812 175.975C197.812 157.035 183.298 141.604 165.483 141.604C147.669 141.604 133.154 157.035 133.154 175.975C133.154 194.915 147.669 210.347 165.483 210.347ZM165.483 142.678C182.759 142.678 196.802 157.608 196.802 175.975C196.802 194.342 182.759 209.273 165.483 209.273C148.207 209.273 134.165 194.342 134.165 175.975C134.165 157.608 148.207 142.678 165.483 142.678Z" fill="#FFD80B"/>
<path d="M165.483 200.895C178.415 200.895 188.922 189.724 188.922 175.975C188.922 162.226 178.415 151.056 165.483 151.056C152.552 151.056 142.045 162.226 142.045 175.975C142.045 189.724 152.552 200.895 165.483 200.895ZM165.483 152.13C177.842 152.13 187.911 162.835 187.911 175.975C187.911 189.115 177.842 199.82 165.483 199.82C153.124 199.82 143.055 189.115 143.055 175.975C143.055 162.835 153.124 152.13 165.483 152.13Z" fill="#FFD80B"/>
</mask>
<g mask="url(#mask0)">
<rect width="433" height="250" transform="matrix(-1 0 0 1 380 -92)" fill="#FFD80B"/>
</g>
</svg>

