<svg width="21" height="19" viewBox="0 0 21 19" fill="none" xmlns="http://www.w3.org/2000/svg">
<path d="M18.7552 3.37778H15.7138V3.02593C15.7138 1.33704 14.3379 0 12.6724 0H8.4C6.66207 0 5.28621 1.33704 5.28621 3.02593V3.37778H2.24483C1.01379 3.37778 0 4.36296 0 5.55926V15.9741C0 17.1 0.868966 18.0148 1.95517 18.1556C1.95517 18.2259 1.88276 18.2963 1.88276 18.3667C1.88276 18.7185 2.17241 18.9296 2.46207 18.9296H3.62069C3.98276 18.9296 4.2 18.6481 4.2 18.3667C4.2 18.2963 4.2 18.2259 4.2 18.2259H16.8C16.8 18.2963 16.8 18.3667 16.8 18.3667C16.8 18.7185 17.0897 18.9296 17.3793 18.9296H18.4655C18.8276 18.9296 19.0448 18.6481 19.0448 18.3667C19.0448 18.2963 19.0448 18.2259 18.9724 18.1556C20.0586 18.0148 20.9276 17.1 20.9276 15.9741V5.55926C21 4.36296 19.9862 3.37778 18.7552 3.37778ZM19.4069 16.0444C19.4069 16.3259 19.1897 16.6074 18.8276 16.6074H18.6828H4.2H2.53448H2.17241C1.88276 16.6074 1.5931 16.3259 1.5931 16.0444V5.55926C1.5931 5.20741 1.88276 4.92593 2.17241 4.92593H6.87931V3.02593C6.87931 2.25185 7.53103 1.61852 8.32759 1.61852H12.6C13.3966 1.61852 14.0483 2.25185 14.0483 3.02593V4.9963H18.7552C19.1172 4.9963 19.4069 5.27778 19.4069 5.62963V16.0444ZM11.8034 2.53333H9.12414C8.61724 2.53333 8.25517 3.16667 8.25517 3.94074V4.29259H12.6V3.94074C12.6724 3.16667 12.3103 2.53333 11.8034 2.53333Z" fill="#FFD80B"/>
</svg>
