<svg width="22" height="14" viewBox="0 0 22 14" fill="none" xmlns="http://www.w3.org/2000/svg">
<path d="M10.34 1.4C12.6133 1.4 14.52 3.09474 14.74 5.37895L14.8867 7.07368L16.5 6.55789C16.7933 6.48421 17.16 6.41053 17.4533 6.41053C19.2133 6.41053 20.6067 7.81053 20.6067 9.57895C20.6067 10.4632 20.24 11.3474 19.58 11.9368C19.4333 12.0105 19.0667 12.3053 18.8467 12.4526C18.7733 12.5263 18.7 12.5263 18.6267 12.6H2.78667C1.90667 12.3053 1.32 11.4211 1.32 10.5368C1.32 9.28421 2.27333 8.32632 3.52 8.32632H4.62H6.30667L6.01333 6.70526C5.94 6.41053 5.94 6.11579 5.94 5.82105C5.94 3.38947 7.92 1.4 10.34 1.4ZM10.34 0C7.11333 0 4.54667 2.57895 4.54667 5.82105C4.54667 6.18947 4.62 6.55789 4.69333 6.92632H3.59333C1.61333 6.92632 0 8.54737 0 10.5368C0 12.1579 1.1 13.5579 2.56667 14H19.0667C19.2133 13.9263 20.3867 13.0421 20.5333 12.9684C21.4133 12.1579 22 10.9053 22 9.57895C22 7.07368 19.9467 5.01053 17.4533 5.01053C16.94 5.01053 16.5 5.08421 16.06 5.23158C15.7667 2.28421 13.3467 0 10.34 0Z" fill="#FFD80B"/>
</svg>
