<svg width="16" height="17" viewBox="0 0 16 17" fill="none" xmlns="http://www.w3.org/2000/svg">
<g clip-path="url(#clip0)">
<path d="M7.92974 17C-0.140436 17 -8.55637e-05 15.368 -8.55637e-05 14.892C-8.55637e-05 12.852 2.24553 11.152 6.10518 10.676V10.608V10.54C6.10518 10.472 5.96483 10.404 5.96483 10.404C5.40342 9.928 4.84202 9.248 4.42097 8.432C3.78939 8.092 3.29816 7.344 3.29816 6.528C3.29816 6.324 3.29816 6.052 3.36834 5.848C3.22799 5.304 3.15781 4.76 3.15781 4.284C3.15781 1.904 4.84202 0 6.94728 0C7.64904 0 8.35079 0.204 8.98237 0.68C9.12272 0.612 9.33325 0.612 9.4736 0.544C10.3157 0.408 11.1578 0.748 11.7894 1.36C12.421 1.972 12.842 2.788 12.9824 3.672C13.1227 4.556 12.9122 5.508 12.4911 6.188C12.4911 6.256 12.4911 6.324 12.4911 6.324C12.4911 7.072 12.1403 7.82 11.5087 8.16C11.0876 8.976 10.5964 9.724 9.96483 10.2C9.96483 10.268 9.96483 10.268 9.96483 10.336C9.96483 10.404 9.96483 10.404 9.96483 10.472C13.614 10.948 16.1403 12.648 16.1403 14.756C15.9999 16.66 12.7718 17 7.92974 17ZM6.87711 1.224C5.54377 1.224 4.42097 2.584 4.42097 4.284C4.42097 4.692 4.49114 5.168 4.63149 5.576L4.70167 5.78L4.63149 5.984C4.56132 6.12 4.56132 6.256 4.56132 6.392C4.56132 6.8 4.77184 7.208 5.12272 7.276L5.40342 7.344L5.4736 7.548C5.82448 8.364 6.3157 8.976 6.87711 9.384L7.08763 9.52L7.29816 9.724C7.36834 9.928 7.50869 10.132 7.50869 10.336V10.404C7.50869 10.676 7.36834 11.084 7.01746 11.492L6.80693 11.628H6.52623C3.57886 11.968 1.33325 13.328 1.33325 14.688C1.4736 14.892 2.94728 15.64 8.14027 15.64C14.8771 15.64 14.9473 14.756 14.9473 14.688C14.9473 13.192 12.5613 11.832 9.4736 11.56H9.1929L9.05255 11.356C8.84202 11.016 8.84202 10.676 8.84202 10.472C8.84202 10.404 8.84202 10.404 8.84202 10.336C8.84202 10.064 8.9122 9.792 9.05255 9.588L9.12272 9.452L9.26307 9.384C9.82448 8.976 10.3157 8.296 10.5964 7.548L10.6666 7.344L10.8771 7.276C11.1578 7.14 11.3683 6.8 11.3683 6.392C11.3683 6.324 11.3683 6.256 11.3683 6.188L11.2982 5.984L11.228 5.78C11.5789 5.304 11.7192 4.556 11.649 3.876C11.5789 3.196 11.2982 2.652 10.8771 2.244C10.5262 1.904 10.035 1.7 9.61395 1.768C9.4736 1.768 9.40342 1.836 9.26307 1.904L8.98237 2.04L8.70167 1.972C8.63149 1.972 8.56132 1.904 8.49114 1.904L8.35079 1.836L8.21044 1.768C7.85956 1.36 7.36834 1.224 6.87711 1.224Z" fill="#FFD80B"/>
</g>
<defs>
<clipPath id="clip0">
<rect width="16" height="17" fill="white"/>
</clipPath>
</defs>
</svg>
