<svg width="56" height="54" viewBox="0 0 56 54" fill="none" xmlns="http://www.w3.org/2000/svg">
<g clip-path="url(#clip0)">
<path d="M26.7 53.4C12 53.4 0 41.4 0 26.7C0 12 12 0 26.7 0C33.8 0 40.5 2.8 45.6 7.8C46 8.2 46 8.8 45.6 9.2C45.2 9.6 44.6 9.6 44.2 9.2C39.5 4.6 33.3 2 26.7 2C13.1 2 2 13.1 2 26.7C2 40.3 13.1 51.4 26.7 51.4C40.3 51.4 51.4 40.3 51.4 26.7C51.4 23.2 50.7 19.9 49.3 16.8C49.1 16.3 49.3 15.7 49.8 15.5C50.3 15.3 50.9 15.5 51.1 16C52.6 19.4 53.4 23 53.4 26.7C53.4 41.4 41.4 53.4 26.7 53.4Z" fill="black"/>
<path d="M26.7 34.4L13.4 21.1C13 20.7 13 20.1 13.4 19.7C13.8 19.3 14.4 19.3 14.8 19.7L26.7 31.6L53.8 4.49995C54.2 4.09995 54.8 4.09995 55.2 4.49995C55.6 4.89995 55.6 5.49995 55.2 5.89995L26.7 34.4Z" fill="black"/>
<path d="M26.7 28.4L21.1 22.8C20.7 22.4 20.7 21.8 21.1 21.4C21.5 21 22.1 21 22.5 21.4L26.7 25.6L39.9 12.4C40.3 12 40.9 12 41.3 12.4C41.7 12.8 41.7 13.4 41.3 13.8L26.7 28.4Z" fill="black"/>
</g>
<defs>
<clipPath id="clip0">
<rect width="55.5" height="53.4" fill="white"/>
</clipPath>
</defs>
</svg>
