<svg width="116" height="123" viewBox="0 0 116 123" fill="none" xmlns="http://www.w3.org/2000/svg">
<g clip-path="url(#clip0)">
<path d="M79 1V18C79 17.4 79.4 17 80 17C80.6 17 81 17.4 81 18V35.7C81 36.3 80.6 36.7 80 36.7C79.4 36.7 79 36.3 79 35.7V37L110.5 54.3H110.6C113.4 49.2 115 43.3 115 37C115 17.1 98.9 1 79 1Z" fill="#FFD80B"/>
<path d="M80 36.7C80.6 36.7 81 36.3 81 35.7V15C81 14.4 80.6 14 80 14C79.4 14 79 14.4 79 15V35.7C79 36.2 79.4 36.7 80 36.7Z" fill="black"/>
<path d="M57.0999 42.1C57.2999 42 56.7999 42.1 57 42L56.4 40.2C49.2 45.7 44.4999 43.8 39.0999 41.5C34.1999 39.5 30 37.1 22 40L21 41C20.9 41 21.1 41 21 41V42C20.9 42 20.8 42.1 20.7 42.1L21.4 43.9C21.2 44 21 44 20.7 44.1L21.4 46C28.7 43.3 33.5999 45.4 38.2999 47.4C41.2999 48.7 44.2 49.9 47.4 49.9C50.4 49.9 53.6999 48.9 57.5999 45.9L56.5999 44.6C56.8999 44.4 57.2999 44.1 57.5999 43.9L57.0999 43.3C57.2999 43.2 57.3999 43.1 57.5999 42.9L57.0999 42.1Z" fill="#FFD80B"/>
<path d="M69 91V110.1C69 112.3 67.2 114 65.1 114H2V121H72.5C75.5 121 78 118.5 78 115.5V99.8C78 95 74.1 91 69.2 91H69Z" fill="#85BFF4"/>
<path d="M44.6 34C50.9 34 56 39.1 56 45.4V60.5C56 69.6 48.6 77 39.5 77H38.5C29.4 77 22 69.6 22 60.5V45.4C22 39.1 27.1 34 33.4 34H44.6ZM44.6 32H33.4C26 32 20 38 20 45.4V60.5C20 70.7 28.3 79 38.5 79H39.5C49.7 79 58 70.7 58 60.5V45.4C58 38 52 32 44.6 32Z" fill="black"/>
<path d="M47.4 50.8C44.2 50.8 41.2999 49.6 38.2999 48.3C33.5999 46.3 28.5999 44.2 21.4 46.9L20.7 45C28.7 42.1 34.1999 44.4 39.0999 46.4C44.4999 48.7 49.2 50.6 56.4 45.1L57.5999 46.7C53.6999 49.8 50.4 50.8 47.4 50.8Z" fill="black"/>
<path d="M55.9 86.3L65.5 90.4C66.6 90.9 67.8 91.2 69.2 91.4C73.1 92 76 95.3 76 99.2V118.5C76 119.9 74.9 121 73.5 121H4.5C3.1 121 2 119.9 2 118.5V99.3C2 95.3 5 92 9 91.5C10.2 91.4 11.3 91.1 12.3 90.6L22.1 86.4C25.6 89 33.1 90 39 90C44.9 90 52.4 89 55.9 86.3ZM55.6 84.1H55.3C53.7 86.3 47 88 39 88C31 88 24.3 86.3 22.7 84.1H22.4L11.5 88.8C10.6 89.2 9.7 89.4 8.7 89.5C3.8 90 0 94.2 0 99.3V118.6C0 121.1 2 123.1 4.5 123.1H73.6C76.1 123.1 78.1 121.1 78.1 118.6V99.3C78.1 94.3 74.4 90.2 69.5 89.5C68.4 89.3 67.3 89.1 66.3 88.6L55.6 84.1Z" fill="black"/>
<path d="M68 113H66V122H68V113Z" fill="black"/>
<path d="M14 113H12V122H14V113Z" fill="black"/>
<path d="M21 96C20.3 96 19.6 95.7 19.2 95.1C18.7 94.4 18.6 93.4 19 92.6L22.1 84.5L24 85.2L20.8 93.5C20.7 93.6 20.8 93.7 20.8 93.8C20.9 93.9 20.9 93.9 21.1 93.9L37.7 87.9L38.4 89.8L21.7 95.8C21.4 96 21.2 96 21 96Z" fill="black"/>
<path d="M57.7001 96.1C57.5 96.1 57.3 96.1 57.1 96L40.3 90L41 88.1L57.7001 94.1C57.8001 94.1 57.9001 94 57.9001 94C58.0001 93.9 58.0001 93.8 57.9001 93.7L57.8 93.6L54.6 85.5L56.5 84.8L59.6 92.9C60 93.7 59.9001 94.6 59.4001 95.4C59.1001 95.7 58.4001 96.1 57.7001 96.1Z" fill="black"/>
<path d="M39 107C38.4 107 38 106.6 38 106V90C38 89.4 38.4 89 39 89C39.6 89 40 89.4 40 90V106C40 106.6 39.6 107 39 107Z" fill="black"/>
<path d="M39 119C38.4 119 38 118.6 38 118V113C38 112.4 38.4 112 39 112C39.6 112 40 112.4 40 113V118C40 118.6 39.6 119 39 119Z" fill="black"/>
<path d="M79.0001 74C72.0001 74 65.2001 72 59.4001 68.4C58.9001 68.1 58.8001 67.5 59.1001 67C59.4001 66.5 60.0001 66.4 60.5001 66.7C66.0001 70.2 72.4001 72 79.0001 72C98.3001 72 114 56.3 114 37C114 17.7 98.3001 2 79.0001 2C63.0001 2 49.0001 12.8 45.1001 28.3C45.0001 28.8 44.4001 29.2 43.9001 29C43.4001 28.9 43.0001 28.3 43.2001 27.8C47.3001 11.4 62.1001 0 79.0001 0C99.4001 0 116 16.6 116 37C116 57.4 99.4001 74 79.0001 74Z" fill="black"/>
<path d="M80 39C81.1046 39 82 38.1046 82 37C82 35.8954 81.1046 35 80 35C78.8954 35 78 35.8954 78 37C78 38.1046 78.8954 39 80 39Z" fill="black"/>
<path d="M94.9999 46C94.7999 46 94.6999 46 94.4999 45.9L79.4999 37.9C78.9999 37.6 78.7999 37 79.0999 36.5C79.3999 36 79.9999 35.8 80.4999 36.1L95.4999 44.1C95.9999 44.4 96.1999 45 95.8999 45.5C95.6999 45.8 95.3999 46 94.9999 46Z" fill="black"/>
</g>
<defs>
<clipPath id="clip0">
<rect width="116" height="123" fill="white"/>
</clipPath>
</defs>
</svg>
