<svg width="150" height="114" viewBox="0 0 150 114" fill="none" xmlns="http://www.w3.org/2000/svg">
<g clip-path="url(#clip0)">
<path d="M44 74.6H7.7C5.6 74.6 4 76.3 4 78.3V90.1C4 85.9 4 87.2 4 82.5H38.2C39.2 82.5 40 83.3 40 84.3V108C40 108.7 40.6 109.3 41.3 109.3H46.4C47.3 109.3 48.1 108.6 48.1 107.6V78.6C48 76.4 46.2 74.6 44 74.6Z" fill="#85BFF4"/>
<path d="M142.9 62.6H105.8C103.7 62.6 102 64.3 102 66.3V78.1C102 73.9 102 75.2 102 70.5H137C138 70.5 138.9 71.3 138.9 72.3V108C138.9 108.7 139.5 109.3 140.2 109.3H145.4C146.3 109.3 147.1 108.6 147.1 107.6V66.6C147 64.4 145.2 62.6 142.9 62.6Z" fill="#85BFF4"/>
<path d="M48 110.2H4C3.4 110.2 3 109.8 3 109.2V77.7C3 75.4 4.9 73.5 7.2 73.5H44.9C47.2 73.5 49.1 75.4 49.1 77.7V109.2C49 109.8 48.6 110.2 48 110.2ZM5 108.2H47V77.7C47 76.5 46 75.5 44.8 75.5H7.2C6 75.5 5 76.5 5 77.7V108.2Z" fill="black"/>
<path d="M98.3 110.2H51.3C50.7 110.2 50.3 109.8 50.3 109.2V46C50.3 43.9 52 42.2 54.1 42.2H95.2C97.5 42.2 99.3 44.1 99.3 46.3V109.2C99.3 109.8 98.8 110.2 98.3 110.2ZM52.3 108.2H97.3V46.4C97.3 45.2 96.3 44.3 95.2 44.3H54C53 44.3 52.2 45.1 52.2 46.1V108.2H52.3Z" fill="black"/>
<path d="M148 110.2H101.3C100.7 110.2 100.3 109.8 100.3 109.2V66.3C100.3 63.5 102.6 61.2 105.4 61.2H143.9C146.7 61.2 149 63.5 149 66.3V109.2C149 109.8 148.6 110.2 148 110.2ZM102.3 108.2H147V66.3C147 64.6 145.6 63.2 143.9 63.2H105.4C103.7 63.2 102.3 64.6 102.3 66.3V108.2Z" fill="black"/>
<path d="M73.8 74.2V60.8L70.4 64.2L67.5 61.1L74.5 54.2H79V74.2H73.8Z" fill="#FFD80B"/>
<path d="M79.9 75.2H72.7V63.2L70.3 65.6L66 61.1L74 53.2H79.9V75.2ZM74.8 73.2H78V55.2H74.9L68.9 61.1L70.5 62.7L74.8 58.3V73.2Z" fill="black"/>
<path d="M150 111.2H0V113.2H150V111.2Z" fill="black"/>
<path d="M86 15.2L75.6 1.6C75 0.8 74 0.8 73.4 1.6L63 15.2C62.6 15.8 61.8 15.9 61.2 15.6L52.1 10.4C51.1 9.8 50 10.7 50 11.9V14.2V16.2V31.6C50 32.5 50.7 33.3 51.5 33.3H74.5H97.5C98.3 33.3 99 32.5 99 31.6V16.2V14.2V11.9C99 10.6 97.8 9.8 96.9 10.4L87.8 15.6C87.2 15.9 86.4 15.8 86 15.2Z" fill="#FFD80B"/>
<path d="M97.5 34.2H51.5C50.1 34.2 49 33 49 31.5V11.9C49 10.9 49.5 10 50.3 9.5C51 9.1 51.9 9.1 52.6 9.5L61.7 14.7C61.9 14.8 62.1 14.6 62.2 14.6L72.6 1C73.1 0.4 73.8 0 74.5 0C75.2 0 75.9 0.4 76.4 1L86.8 14.6C86.9 14.7 87 14.9 87.3 14.7L96.4 9.5C97.1 9.1 98 9.1 98.7 9.5C99.5 10 100 10.9 100 11.9V31.6C100 33 98.9 34.2 97.5 34.2ZM51.5 11.2C51.5 11.2 51.4 11.2 51.3 11.2C51.2 11.3 51 11.5 51 11.8V31.5C51 31.9 51.2 32.2 51.5 32.2H97.6C97.8 32.2 98.1 31.9 98.1 31.5V11.9C98.1 11.6 97.9 11.4 97.8 11.3C97.7 11.2 97.5 11.3 97.5 11.3L88.4 16.5C87.4 17.1 86.1 16.8 85.3 15.8L74.8 2.2C74.6 2 74.3 2 74.2 2.2L63.8 15.8C63.1 16.8 61.8 17.1 60.7 16.5L51.6 11.3C51.6 11.2 51.5 11.2 51.5 11.2Z" fill="black"/>
<path d="M74.5 12.2C75.3284 12.2 76 11.5284 76 10.7C76 9.87159 75.3284 9.20001 74.5 9.20001C73.6716 9.20001 73 9.87159 73 10.7C73 11.5284 73.6716 12.2 74.5 12.2Z" fill="black"/>
</g>
<defs>
<clipPath id="clip0">
<rect width="150" height="113.2" fill="white"/>
</clipPath>
</defs>
</svg>
