<svg width="409" height="309" viewBox="0 0 409 309" fill="none" xmlns="http://www.w3.org/2000/svg">
<mask id="mask0" mask-type="alpha" maskUnits="userSpaceOnUse" x="-17" y="-232" width="645" height="645">
<path d="M426.707 290.767C399.606 307.188 370.146 317.784 339.081 322.321C309.071 326.666 278.847 325.226 249.261 317.93C219.675 310.635 192.202 297.986 167.613 280.242C142.177 261.838 120.97 238.809 104.549 211.707C88.1281 184.605 77.5326 155.146 72.9949 124.081C68.6501 94.0704 70.0908 63.8468 77.3862 34.2608C84.6815 4.6749 97.3306 -22.798 115.099 -47.3467C133.478 -72.8228 156.508 -94.0304 183.609 -110.451C210.711 -126.872 240.17 -137.468 271.236 -142.005C301.246 -146.35 331.47 -144.909 361.056 -137.614C390.617 -130.359 418.114 -117.67 442.663 -99.9007C468.098 -81.4973 489.331 -58.4269 505.727 -31.3661C522.123 -4.30523 532.743 25.195 537.281 56.2603C541.667 86.2459 540.226 116.469 532.93 146.055C525.676 175.617 512.986 203.114 495.217 227.663C476.838 253.139 453.809 274.347 426.707 290.767ZM184.351 -109.227C74.3937 -42.6036 39.1502 101.008 105.773 210.965C172.397 320.923 316.008 356.166 425.965 289.543C535.923 222.92 571.166 79.3087 504.543 -30.6489C437.92 -140.606 294.309 -175.85 184.351 -109.227Z" fill="url(#paint0_linear)"/>
<path d="M420.178 279.992C394.546 295.523 366.648 305.563 337.21 309.84C308.811 313.99 280.216 312.567 252.228 305.698C224.24 298.83 198.21 286.813 174.984 270.028C150.895 252.65 130.789 230.795 115.259 205.162C99.7282 179.53 89.6878 151.632 85.4109 122.194C81.2613 93.7951 82.6845 65.2003 89.553 37.2122C96.4215 9.22408 108.438 -16.8056 125.223 -40.0323C142.601 -64.121 164.456 -84.2267 190.089 -99.7573C215.721 -115.288 243.62 -125.328 273.057 -129.605C301.456 -133.755 330.051 -132.332 358.039 -125.463C386.027 -118.595 412.057 -106.578 435.283 -89.7934C459.372 -72.4154 479.478 -50.5596 495.008 -24.9273C510.539 0.704962 520.579 28.6036 524.856 58.0412C529.006 86.44 527.583 115.035 520.714 143.023C513.846 171.011 501.829 197.041 485.045 220.267C467.626 244.381 445.811 264.462 420.178 279.992ZM190.88 -98.4512C86.8816 -35.4386 53.5362 100.438 116.549 204.437C179.561 308.435 315.438 341.78 419.437 278.768C523.435 215.755 556.78 79.8787 493.768 -24.1199C430.755 -128.118 294.879 -161.464 190.88 -98.4512Z" fill="url(#paint1_linear)"/>
<path d="M413.674 269.258C389.511 283.898 363.174 293.383 335.429 297.415C308.658 301.304 281.66 300.03 255.245 293.547C228.83 287.065 204.334 275.737 182.379 259.856C159.654 243.437 140.699 222.837 126.059 198.674C111.418 174.511 101.933 148.174 97.901 120.429C94.0121 93.6578 95.2867 66.6596 101.769 40.2446C108.252 13.8296 119.58 -10.6666 135.461 -32.6208C151.879 -55.3466 172.479 -74.3011 196.642 -88.9414C220.805 -103.582 247.143 -113.067 274.887 -117.099C301.659 -120.988 328.657 -119.713 355.072 -113.231C381.487 -106.748 405.983 -95.4207 427.937 -79.5394C450.663 -63.1213 469.617 -42.5209 484.258 -18.358C498.898 5.8049 508.383 32.1426 512.415 59.8872C516.304 86.6584 515.03 113.657 508.547 140.072C502.065 166.487 490.737 190.983 474.856 212.937C458.438 235.663 437.837 254.617 413.674 269.258ZM197.384 -87.7169C99.3038 -28.2903 67.8566 99.852 127.283 197.932C186.71 296.013 314.852 327.46 412.932 268.033C511.013 208.606 542.46 80.4641 483.033 -17.6161C423.607 -115.696 295.464 -147.144 197.384 -87.7169Z" fill="url(#paint2_linear)"/>
<path d="M407.146 258.482C384.411 272.257 359.675 281.162 333.624 284.95C308.439 288.603 283.095 287.386 258.253 281.29C233.411 275.194 210.383 264.539 189.75 249.642C168.412 234.225 150.609 214.88 136.834 192.145C123.059 169.411 114.154 144.675 110.367 118.624C106.714 93.4391 107.93 68.0945 114.026 43.2526C120.123 18.4107 130.778 -4.61757 145.674 -25.2498C161.092 -46.5881 180.437 -64.3913 203.171 -78.166C225.905 -91.9407 250.641 -100.846 276.693 -104.634C301.877 -108.287 327.222 -107.07 352.064 -100.974C376.906 -94.8774 399.934 -84.2226 420.566 -69.3259C441.904 -53.9085 459.732 -34.5228 473.482 -11.8292C487.232 10.8643 496.162 35.6412 499.95 61.6926C503.603 86.877 502.387 112.222 496.29 137.064C490.194 161.905 479.539 184.934 464.642 205.566C449.225 226.904 429.88 244.707 407.146 258.482ZM203.913 -76.9415C111.792 -21.1255 82.2426 99.2824 138.059 191.403C193.875 283.525 314.283 313.074 406.404 257.258C498.525 201.442 528.074 81.0338 472.258 -11.0873C416.442 -103.208 296.034 -132.758 203.913 -76.9415Z" fill="url(#paint3_linear)"/>
<path d="M400.617 247.707C379.352 260.591 356.177 268.942 331.778 272.509C308.205 275.967 284.448 274.793 261.245 269.099C237.976 263.388 216.44 253.447 197.146 239.469C177.171 225.012 160.519 206.922 147.609 185.617C134.7 164.311 126.375 141.176 122.807 116.777C119.35 93.2044 120.524 69.4478 126.218 46.2445C131.928 22.9757 141.869 1.44012 155.847 -17.854C170.304 -37.8296 188.394 -54.4815 209.7 -67.3907C230.965 -80.2751 254.14 -88.6254 278.539 -92.193C302.112 -95.6506 325.869 -94.4766 349.072 -88.7823C372.341 -83.0719 393.876 -73.1308 413.17 -59.1533C433.146 -44.6957 449.798 -26.6063 462.707 -5.30045C475.616 16.0054 483.942 39.1398 487.509 63.5389C490.967 87.1118 489.793 110.868 484.099 134.072C478.388 157.34 468.447 178.876 454.47 198.17C440.012 218.146 421.882 234.822 400.617 247.707ZM210.442 -66.1662C124.239 -13.936 96.6038 98.6719 148.834 184.875C201.064 271.078 313.672 298.713 399.875 246.482C486.078 194.252 513.713 81.6443 461.483 -4.55854C409.252 -90.7614 296.644 -118.396 210.442 -66.1662Z" fill="url(#paint4_linear)"/>
<path d="M394.113 236.972C374.276 248.991 352.703 256.762 329.972 260.044C308.027 263.241 285.908 262.19 264.253 256.841C242.623 251.533 222.489 242.249 204.517 229.256C185.888 215.824 170.363 198.949 158.344 179.113C146.325 159.276 138.555 137.703 135.273 114.972C132.076 93.0266 133.126 70.9074 138.475 49.2525C143.783 27.6223 153.067 7.48913 166.06 -10.483C179.493 -29.1119 196.367 -44.6373 216.204 -56.6562C236.04 -68.675 257.614 -76.4455 280.345 -79.7276C302.29 -82.9245 324.409 -81.8743 346.064 -76.5253C367.694 -71.217 387.827 -61.9328 405.799 -48.9399C424.428 -35.5078 439.954 -18.6329 451.973 1.20354C463.991 21.04 471.762 42.6136 475.044 65.3442C478.241 87.2895 477.191 109.409 471.842 131.064C466.533 152.694 457.249 172.827 444.256 190.799C430.824 209.428 413.949 224.953 394.113 236.972ZM216.946 -55.4317C136.661 -6.78741 110.924 98.0861 159.569 178.371C208.213 258.655 313.086 284.392 393.371 235.748C473.656 187.104 499.392 82.23 450.748 1.94545C402.104 -78.3391 297.23 -104.076 216.946 -55.4317Z" fill="url(#paint5_linear)"/>
<path d="M387.584 226.197C351.258 248.207 308.514 254.743 267.245 244.65C225.951 234.516 191.129 208.91 169.119 172.584C147.11 136.258 140.573 93.5136 150.666 52.2444C160.8 10.9505 186.407 -23.8709 222.733 -45.8808C259.059 -67.8907 301.803 -74.4268 343.072 -64.3337C384.366 -54.1998 419.187 -28.5937 441.197 7.73233C463.207 44.0583 469.743 86.8025 459.65 128.072C449.491 169.325 423.91 204.187 387.584 226.197ZM223.474 -44.6563C149.149 0.377349 125.31 97.5164 170.344 171.842C215.378 246.167 312.517 270.006 386.842 224.972C461.168 179.939 485.006 82.7997 439.973 8.47424C394.939 -65.8512 297.8 -89.69 223.474 -44.6563Z" fill="url(#paint6_linear)"/>
<path d="M381.055 215.422C347.586 235.7 308.229 241.747 270.253 232.393C232.277 223.038 200.149 199.483 179.895 166.055C159.641 132.627 153.569 93.2282 162.924 55.2524C172.278 17.2766 195.833 -14.8514 229.261 -35.1055C262.689 -55.3595 302.088 -61.431 340.064 -52.0767C378.04 -42.7223 410.168 -19.167 430.422 14.2611C450.676 47.6892 456.747 87.0879 447.393 125.064C438.039 163.04 414.524 195.143 381.055 215.422ZM230.003 -33.881C161.596 7.56681 139.671 96.9059 181.119 165.313C222.567 233.72 311.906 255.645 380.313 214.197C448.721 172.749 470.645 83.4102 429.197 15.003C387.75 -53.4042 298.41 -75.3288 230.003 -33.881Z" fill="url(#paint7_linear)"/>
<path d="M374.551 204.687C343.98 223.21 307.984 228.727 273.245 220.201C238.505 211.676 209.177 190.163 190.629 159.551C172.082 128.939 166.59 92.9836 175.115 58.2443C183.64 23.505 205.154 -5.8233 235.765 -24.3709C266.336 -42.8939 302.333 -48.4104 337.072 -39.8851C371.811 -31.3598 401.164 -9.80586 419.687 20.7651C438.21 51.3361 443.727 87.3324 435.201 122.072C426.676 156.811 405.122 186.164 374.551 204.687ZM236.507 -23.1465C174.018 14.7155 153.992 96.3201 191.854 158.809C229.716 221.298 311.32 241.324 373.809 203.463C436.298 165.601 456.325 83.996 418.463 21.507C380.601 -40.9819 298.996 -61.0084 236.507 -23.1465Z" fill="url(#paint8_linear)"/>
<path d="M368.022 193.912C340.309 210.703 307.739 215.706 276.253 207.944C244.79 200.223 218.196 180.736 201.405 153.022C184.613 125.308 179.61 92.7391 187.372 61.2523C195.093 29.7902 214.58 3.19622 242.294 -13.5956C270.008 -30.3874 302.577 -35.3899 334.064 -27.628C365.526 -19.9069 392.12 -0.420002 408.912 27.2939C425.704 55.0078 430.706 87.577 422.944 119.064C415.248 150.567 395.736 177.12 368.022 193.912ZM243.036 -12.3711C186.506 21.8802 168.378 95.7505 202.629 152.28C236.88 208.81 310.751 226.939 367.281 192.687C423.81 158.436 441.939 84.5656 407.687 28.0358C373.436 -28.494 299.566 -46.6224 243.036 -12.3711Z" fill="url(#paint9_linear)"/>
<path d="M361.494 183.136C336.637 198.197 307.429 202.669 279.244 195.752C251.06 188.836 227.241 171.35 212.18 146.493C197.119 121.637 192.647 92.4289 199.564 64.2442C206.481 36.0594 223.966 12.2404 248.823 -2.82025C273.68 -17.8809 302.887 -22.3533 331.072 -15.4365C359.257 -8.51972 383.076 8.96582 398.137 33.8226C413.197 58.6794 417.67 87.887 410.753 116.072C403.836 144.257 386.35 168.076 361.494 183.136ZM249.565 -1.59577C198.953 29.0697 182.764 95.1808 213.405 145.751C244.045 196.322 310.181 212.552 360.752 181.912C411.363 151.246 427.553 85.1352 396.912 34.5645C366.271 -16.0062 300.176 -32.2612 249.565 -1.59577Z" fill="url(#paint10_linear)"/>
<path d="M354.99 172.402C309.643 199.877 250.39 185.336 222.915 139.989C195.439 94.643 209.981 35.3895 255.327 7.91429C300.673 -19.5609 359.927 -5.0196 387.402 40.3267C414.877 85.673 400.336 144.926 354.99 172.402ZM256.069 9.13876C211.416 36.1936 197.059 94.5542 224.139 139.247C251.219 183.941 309.595 198.232 354.248 171.177C398.9 144.122 413.257 85.7618 386.177 41.0686C359.098 -3.62465 300.721 -17.9161 256.069 9.13876Z" fill="url(#paint11_linear)"/>
<path d="M348.461 161.626C309.033 185.516 257.555 172.848 233.69 133.461C209.825 94.0734 222.469 42.5543 261.856 18.6896C301.243 -5.17502 352.762 7.46823 376.627 46.8554C400.491 86.2426 387.889 137.737 348.461 161.626ZM262.598 19.9141C223.863 43.383 211.445 93.9845 234.914 132.719C258.383 171.453 308.985 183.871 347.719 160.402C386.453 136.933 398.871 86.3315 375.402 47.5973C351.933 8.8632 301.332 -3.55486 262.598 19.9141Z" fill="url(#paint12_linear)"/>
<path d="M341.932 150.851C308.463 171.13 264.744 160.401 244.465 126.932C224.186 93.4629 234.916 49.7437 268.384 29.4649C301.853 9.18618 345.573 19.9152 365.851 53.3841C386.13 86.8531 375.401 130.572 341.932 150.851ZM269.126 30.6894C236.311 50.5725 225.831 93.4148 245.69 126.19C265.548 158.965 308.415 169.485 341.19 149.627C373.965 129.768 384.485 86.9011 364.627 54.1261C344.769 21.351 301.942 10.8063 269.126 30.6894Z" fill="url(#paint13_linear)"/>
<path d="M335.428 140.116C307.877 156.809 271.893 147.978 255.2 120.428C238.507 92.8771 247.338 56.8924 274.889 40.1995C302.439 23.5066 338.424 32.3375 355.117 59.8882C371.81 87.4388 362.979 123.424 335.428 140.116ZM275.63 41.4239C248.774 57.6964 240.127 92.7882 256.424 119.686C272.721 146.583 307.789 155.189 334.686 138.892C361.584 122.595 370.19 87.5276 353.892 60.6301C337.595 33.7325 302.487 25.1515 275.63 41.4239Z" fill="url(#paint14_linear)"/>
<path d="M328.899 129.341C307.308 142.423 279.057 135.49 265.975 113.899C252.893 92.3074 259.826 64.0571 281.417 50.9748C303.009 37.8925 331.259 44.8254 344.341 66.4169C357.424 88.0085 350.491 116.259 328.899 129.341ZM282.159 52.1993C261.221 64.8859 254.513 92.2185 267.2 113.157C279.886 134.095 307.219 140.803 328.157 128.117C349.096 115.43 355.804 88.0973 343.117 67.1588C330.43 46.2204 303.098 39.5127 282.159 52.1993Z" fill="url(#paint15_linear)"/>
<path d="M322.371 118.566C306.697 128.062 286.247 123.043 276.751 107.37C267.254 91.6969 272.273 71.2466 287.946 61.7502C303.619 52.2538 324.07 57.2725 333.566 72.9458C343.062 88.619 338.044 109.069 322.371 118.566ZM288.688 62.9747C273.709 72.0506 268.899 91.6489 277.975 106.628C287.051 121.608 306.649 126.417 321.629 117.341C336.608 108.265 341.418 88.6671 332.342 73.6877C323.266 58.7083 303.667 53.8987 288.688 62.9747Z" fill="url(#paint16_linear)"/>
<path d="M315.866 107.831C306.112 113.742 293.396 110.621 287.485 100.866C281.575 91.1111 284.695 78.3952 294.45 72.4847C304.205 66.5742 316.921 69.6948 322.831 79.4498C328.742 89.2047 325.621 101.921 315.866 107.831ZM295.192 73.7092C286.131 79.1993 283.219 91.0631 288.71 100.124C294.2 109.185 306.063 112.097 315.125 106.607C324.186 101.117 327.097 89.2528 321.607 80.1917C316.117 71.1306 304.253 68.2191 295.192 73.7092Z" fill="url(#paint17_linear)"/>
</mask>
<g mask="url(#mask0)">
<rect width="608" height="309" fill="#57AFFF"/>
</g>
<defs>
<linearGradient id="paint0_linear" x1="183.589" y1="-110.439" x2="426.687" y2="290.78" gradientUnits="userSpaceOnUse">
<stop stop-color="#5DB1FD"/>
<stop offset="0.392265" stop-color="#5AB0FE" stop-opacity="0.3"/>
<stop offset="0.900553" stop-color="#57AFFF" stop-opacity="0.1"/>
</linearGradient>
<linearGradient id="paint1_linear" x1="190.089" y1="-99.7573" x2="420.178" y2="279.992" gradientUnits="userSpaceOnUse">
<stop stop-color="#5DB1FD"/>
<stop offset="0.392265" stop-color="#5AB0FE" stop-opacity="0.3"/>
<stop offset="0.900553" stop-color="#57AFFF" stop-opacity="0.1"/>
</linearGradient>
<linearGradient id="paint2_linear" x1="196.642" y1="-88.9414" x2="413.674" y2="269.258" gradientUnits="userSpaceOnUse">
<stop stop-color="#5DB1FD"/>
<stop offset="0.392265" stop-color="#5AB0FE" stop-opacity="0.3"/>
<stop offset="0.900553" stop-color="#57AFFF" stop-opacity="0.1"/>
</linearGradient>
<linearGradient id="paint3_linear" x1="203.171" y1="-78.166" x2="407.146" y2="258.482" gradientUnits="userSpaceOnUse">
<stop stop-color="#5DB1FD"/>
<stop offset="0.392265" stop-color="#5AB0FE" stop-opacity="0.3"/>
<stop offset="0.900553" stop-color="#57AFFF" stop-opacity="0.1"/>
</linearGradient>
<linearGradient id="paint4_linear" x1="209.7" y1="-67.3907" x2="400.617" y2="247.707" gradientUnits="userSpaceOnUse">
<stop stop-color="#5DB1FD"/>
<stop offset="0.392265" stop-color="#5AB0FE" stop-opacity="0.3"/>
<stop offset="0.900553" stop-color="#57AFFF" stop-opacity="0.1"/>
</linearGradient>
<linearGradient id="paint5_linear" x1="216.204" y1="-56.6562" x2="394.113" y2="236.972" gradientUnits="userSpaceOnUse">
<stop stop-color="#5DB1FD"/>
<stop offset="0.392265" stop-color="#5AB0FE" stop-opacity="0.3"/>
<stop offset="0.900553" stop-color="#57AFFF" stop-opacity="0.1"/>
</linearGradient>
<linearGradient id="paint6_linear" x1="222.733" y1="-45.8808" x2="387.584" y2="226.197" gradientUnits="userSpaceOnUse">
<stop stop-color="#5DB1FD"/>
<stop offset="0.392265" stop-color="#5AB0FE" stop-opacity="0.3"/>
<stop offset="0.900553" stop-color="#57AFFF" stop-opacity="0.1"/>
</linearGradient>
<linearGradient id="paint7_linear" x1="229.261" y1="-35.1055" x2="381.055" y2="215.422" gradientUnits="userSpaceOnUse">
<stop stop-color="#5DB1FD"/>
<stop offset="0.392265" stop-color="#5AB0FE" stop-opacity="0.3"/>
<stop offset="0.900553" stop-color="#57AFFF" stop-opacity="0.1"/>
</linearGradient>
<linearGradient id="paint8_linear" x1="235.765" y1="-24.3709" x2="374.551" y2="204.687" gradientUnits="userSpaceOnUse">
<stop stop-color="#5DB1FD"/>
<stop offset="0.392265" stop-color="#5AB0FE" stop-opacity="0.3"/>
<stop offset="0.900553" stop-color="#57AFFF" stop-opacity="0.1"/>
</linearGradient>
<linearGradient id="paint9_linear" x1="242.294" y1="-13.5956" x2="368.022" y2="193.912" gradientUnits="userSpaceOnUse">
<stop stop-color="#5DB1FD"/>
<stop offset="0.392265" stop-color="#5AB0FE" stop-opacity="0.3"/>
<stop offset="0.900553" stop-color="#57AFFF" stop-opacity="0.1"/>
</linearGradient>
<linearGradient id="paint10_linear" x1="248.823" y1="-2.82025" x2="361.494" y2="183.136" gradientUnits="userSpaceOnUse">
<stop stop-color="#5DB1FD"/>
<stop offset="0.392265" stop-color="#5AB0FE" stop-opacity="0.3"/>
<stop offset="0.900553" stop-color="#57AFFF" stop-opacity="0.1"/>
</linearGradient>
<linearGradient id="paint11_linear" x1="255.327" y1="7.91429" x2="354.99" y2="172.402" gradientUnits="userSpaceOnUse">
<stop stop-color="#5DB1FD"/>
<stop offset="0.392265" stop-color="#5AB0FE" stop-opacity="0.3"/>
<stop offset="0.900553" stop-color="#57AFFF" stop-opacity="0.1"/>
</linearGradient>
<linearGradient id="paint12_linear" x1="261.856" y1="18.6896" x2="348.461" y2="161.626" gradientUnits="userSpaceOnUse">
<stop stop-color="#5DB1FD"/>
<stop offset="0.392265" stop-color="#5AB0FE" stop-opacity="0.3"/>
<stop offset="0.900553" stop-color="#57AFFF" stop-opacity="0.1"/>
</linearGradient>
<linearGradient id="paint13_linear" x1="268.384" y1="29.4649" x2="341.932" y2="150.851" gradientUnits="userSpaceOnUse">
<stop stop-color="#5DB1FD"/>
<stop offset="0.392265" stop-color="#5AB0FE" stop-opacity="0.3"/>
<stop offset="0.900553" stop-color="#57AFFF" stop-opacity="0.1"/>
</linearGradient>
<linearGradient id="paint14_linear" x1="274.889" y1="40.1995" x2="335.428" y2="140.116" gradientUnits="userSpaceOnUse">
<stop stop-color="#5DB1FD"/>
<stop offset="0.392265" stop-color="#5AB0FE" stop-opacity="0.3"/>
<stop offset="0.900553" stop-color="#57AFFF" stop-opacity="0.1"/>
</linearGradient>
<linearGradient id="paint15_linear" x1="281.417" y1="50.9748" x2="328.899" y2="129.341" gradientUnits="userSpaceOnUse">
<stop stop-color="#5DB1FD"/>
<stop offset="0.392265" stop-color="#5AB0FE" stop-opacity="0.3"/>
<stop offset="0.900553" stop-color="#57AFFF" stop-opacity="0.1"/>
</linearGradient>
<linearGradient id="paint16_linear" x1="287.946" y1="61.7502" x2="322.37" y2="118.566" gradientUnits="userSpaceOnUse">
<stop stop-color="#5DB1FD"/>
<stop offset="0.392265" stop-color="#5AB0FE" stop-opacity="0.3"/>
<stop offset="0.900553" stop-color="#57AFFF" stop-opacity="0.1"/>
</linearGradient>
<linearGradient id="paint17_linear" x1="294.45" y1="72.4847" x2="315.866" y2="107.831" gradientUnits="userSpaceOnUse">
<stop stop-color="#5DB1FD"/>
<stop offset="0.392265" stop-color="#5AB0FE" stop-opacity="0.3"/>
<stop offset="0.900553" stop-color="#57AFFF" stop-opacity="0.1"/>
</linearGradient>
</defs>
</svg>
