<svg width="206" height="169" viewBox="0 0 206 169" fill="none" xmlns="http://www.w3.org/2000/svg">
<g clip-path="url(#clip0)">
<path d="M168.506 140.725H150.958V78.7363H168.506V140.725ZM153.029 138.55H166.217V80.9114H153.029V138.55Z" fill="#DADADA"/>
<path d="M206 166.825H0V169H206V166.825Z" fill="#DADADA"/>
<path d="M113.464 77.6484H104.308V59.9219H113.464V77.6484ZM106.597 75.4734H111.393V62.0969H106.597V75.4734Z" fill="#DADADA"/>
<path d="M128.941 77.6484H119.785V59.9219H128.941V77.6484ZM121.965 75.4734H126.761V62.0969H121.965V75.4734Z" fill="#DADADA"/>
<path d="M143.982 77.6484H134.826V59.9219H143.982V77.6484ZM137.115 75.4734H141.911V62.0969H137.115V75.4734Z" fill="#DADADA"/>
<path d="M113.246 128H104.09V110.274H113.246V128ZM106.27 125.825H111.066V112.449H106.27V125.825Z" fill="#DADADA"/>
<path d="M128.614 128H119.458V110.274H128.614V128ZM121.638 125.825H126.434V112.449H121.638V125.825Z" fill="#DADADA"/>
<path d="M143.764 128H134.609V110.274H143.764V128ZM136.788 125.825H141.584V112.449H136.788V125.825Z" fill="#DADADA"/>
<path d="M113.246 102.77H104.09V85.1523H113.246V102.77ZM106.27 100.595H111.066V87.3274H106.27V100.595Z" fill="#DADADA"/>
<path d="M128.614 102.77H119.458V85.1523H128.614V102.77ZM121.638 100.595H126.434V87.3274H121.638V100.595Z" fill="#DADADA"/>
<path d="M143.764 102.77H134.609V85.1523H143.764V102.77ZM136.788 100.595H141.584V87.3274H136.788V100.595Z" fill="#DADADA"/>
<path d="M113.246 153.449H104.09V135.722H113.246V153.449ZM106.27 151.274H111.066V137.897H106.27V151.274Z" fill="#DADADA"/>
<path d="M128.614 153.449H119.458V135.722H128.614V153.449ZM121.638 151.274H126.434V137.897H121.638V151.274Z" fill="#DADADA"/>
<path d="M143.764 153.449H134.609V135.722H143.764V153.449ZM136.788 151.274H141.584V137.897H136.788V151.274Z" fill="#DADADA"/>
<path d="M152.593 169H96.1333V39.4768L152.593 0V169ZM98.3132 166.825H150.413V4.13256L98.3132 40.5644V166.825Z" fill="#DADADA"/>
<path d="M86.1058 168.891H49.9196V87.3274L86.1058 61.9883V168.891ZM52.0994 166.716H83.9259V66.2296L52.0994 88.4149V166.716Z" fill="#DADADA"/>
<path d="M47.9576 168.565H24.3058V115.82L47.9576 132.242V168.565ZM26.4857 166.39H45.7777V133.438L26.5947 119.953V166.39H26.4857Z" fill="#DADADA"/>
<path d="M150.45 15.2356L96.114 51.9307L97.3358 53.7318L151.671 17.0367L150.45 15.2356Z" fill="#DADADA"/>
<path d="M183.111 166.825H180.931V80.9114H151.503V78.7363H183.111V166.825Z" fill="#DADADA"/>
<path d="M61.0371 80.9111H58.8572V167.912H61.0371V80.9111Z" fill="#DADADA"/>
<path d="M73.0265 72.2109H70.8466V167.912H73.0265V72.2109Z" fill="#DADADA"/>
<path d="M173.302 53.7231H165.672V55.8982H173.302V53.7231Z" fill="#DADADA"/>
<path d="M200.55 41.7607H173.302V43.9358H200.55V41.7607Z" fill="#DADADA"/>
<path d="M19.6191 50.4609H14.1693V52.636H19.6191V50.4609Z" fill="#DADADA"/>
<path d="M65.1789 52.6357H25.0688V50.4607H35.3144C34.4424 48.8294 34.0064 47.0894 34.0064 45.2406C34.0064 39.2593 39.7831 33.3867 45.7778 33.3867C47.4128 33.3867 49.0477 33.7129 50.4646 34.4742C51.6636 27.2966 57.7673 21.9678 65.1789 21.9678C73.4625 21.9678 80.1112 28.7104 80.1112 36.8667C80.1112 40.4556 78.8032 44.1531 76.7323 46.7631C73.6805 50.5695 69.4297 52.6357 65.1789 52.6357ZM37.9302 50.4607H65.2879C68.8847 50.4607 72.4816 48.6119 75.2064 45.3494C77.0593 43.1743 78.1493 39.9118 78.1493 36.758C78.1493 29.6891 72.3726 24.0341 65.3969 24.0341C58.5302 24.0341 52.9715 29.3629 52.6445 36.2142L52.5355 38.1718L50.9006 36.9755C49.4837 35.9967 47.7397 35.453 45.9958 35.453C41.3091 35.453 36.4043 40.3468 36.4043 45.1319C36.2953 47.0894 36.8403 49.0469 37.9302 50.4607Z" fill="#DADADA"/>
</g>
<defs>
<clipPath id="clip0">
<rect width="206" height="169" fill="white"/>
</clipPath>
</defs>
</svg>
