<svg width="187" height="169" viewBox="0 0 187 169" fill="none" xmlns="http://www.w3.org/2000/svg">
<path d="M154.506 140.725H136.958V78.7363H154.506V140.725ZM139.029 138.55H152.217V80.9114H139.029V138.55Z" fill="#DADADA"/>
<path d="M99.4635 77.6484H90.308V59.9219H99.4635V77.6484ZM92.5969 75.4734H97.3926V62.0969H92.5969V75.4734Z" fill="#DADADA"/>
<path d="M114.941 77.6484H105.785V59.9219H114.941V77.6484ZM107.965 75.4734H112.761V62.0969H107.965V75.4734Z" fill="#DADADA"/>
<path d="M129.982 77.6484H120.826V59.9219H129.982V77.6484ZM123.115 75.4734H127.911V62.0969H123.115V75.4734Z" fill="#DADADA"/>
<path d="M99.2455 128H90.09V110.274H99.2455V128ZM92.2699 125.825H97.0656V112.449H92.2699V125.825Z" fill="#DADADA"/>
<path d="M114.614 128H105.458V110.274H114.614V128ZM107.638 125.825H112.434V112.449H107.638V125.825Z" fill="#DADADA"/>
<path d="M129.764 128H120.609V110.274H129.764V128ZM122.788 125.825H127.584V112.449H122.788V125.825Z" fill="#DADADA"/>
<path d="M99.2455 102.77H90.09V85.1523H99.2455V102.77ZM92.2699 100.595H97.0656V87.3274H92.2699V100.595Z" fill="#DADADA"/>
<path d="M114.614 102.77H105.458V85.1523H114.614V102.77ZM107.638 100.595H112.434V87.3274H107.638V100.595Z" fill="#DADADA"/>
<path d="M129.764 102.77H120.609V85.1523H129.764V102.77ZM122.788 100.595H127.584V87.3274H122.788V100.595Z" fill="#DADADA"/>
<path d="M99.2455 153.449H90.09V135.722H99.2455V153.449ZM92.2699 151.274H97.0656V137.897H92.2699V151.274Z" fill="#DADADA"/>
<path d="M114.614 153.449H105.458V135.722H114.614V153.449ZM107.638 151.274H112.434V137.897H107.638V151.274Z" fill="#DADADA"/>
<path d="M129.764 153.449H120.609V135.722H129.764V153.449ZM122.788 151.274H127.584V137.897H122.788V151.274Z" fill="#DADADA"/>
<path d="M138.593 169H82.1333V39.4768L138.593 0V169ZM84.3132 166.825H136.413V4.13256L84.3132 40.5644V166.825Z" fill="#DADADA"/>
<path d="M72.1058 168.891H35.9196V87.3274L72.1058 61.9883V168.891ZM38.0994 166.716H69.9259V66.2296L38.0994 88.4149V166.716Z" fill="#DADADA"/>
<path d="M33.9576 168.565H10.3058V115.82L33.9576 132.242V168.565ZM12.4857 166.39H31.7777V133.438L12.5947 119.953V166.39H12.4857Z" fill="#DADADA"/>
<path d="M136.45 15.2356L82.114 51.9307L83.3358 53.7318L137.671 17.0367L136.45 15.2356Z" fill="#DADADA"/>
<path d="M169.111 166.825H166.931V80.9114H137.503V78.7363H169.111V166.825Z" fill="#DADADA"/>
<path d="M47.0371 80.9111H44.8572V167.912H47.0371V80.9111Z" fill="#DADADA"/>
<path d="M59.0265 72.2109H56.8466V167.912H59.0265V72.2109Z" fill="#DADADA"/>
<path d="M159.302 53.7231H151.672V55.8982H159.302V53.7231Z" fill="#DADADA"/>
<path d="M186.55 41.7607H159.302V43.9358H186.55V41.7607Z" fill="#DADADA"/>
<path d="M5.61905 50.4609H0.169312V52.636H5.61905V50.4609Z" fill="#DADADA"/>
<path d="M51.1789 52.6357H11.0688V50.4607H21.3144C20.4424 48.8294 20.0064 47.0894 20.0064 45.2406C20.0064 39.2593 25.7831 33.3867 31.7778 33.3867C33.4128 33.3867 35.0477 33.7129 36.4646 34.4742C37.6636 27.2966 43.7673 21.9678 51.1789 21.9678C59.4625 21.9678 66.1112 28.7104 66.1112 36.8667C66.1112 40.4556 64.8032 44.1531 62.7323 46.7631C59.6805 50.5695 55.4297 52.6357 51.1789 52.6357ZM23.9302 50.4607H51.2879C54.8847 50.4607 58.4816 48.6119 61.2064 45.3494C63.0593 43.1743 64.1493 39.9118 64.1493 36.758C64.1493 29.6891 58.3726 24.0341 51.3969 24.0341C44.5302 24.0341 38.9715 29.3629 38.6445 36.2142L38.5355 38.1718L36.9006 36.9755C35.4837 35.9967 33.7397 35.453 31.9958 35.453C27.3091 35.453 22.4043 40.3468 22.4043 45.1319C22.2953 47.0894 22.8403 49.0469 23.9302 50.4607Z" fill="#DADADA"/>
</svg>