<svg width="102" height="75" viewBox="0 0 102 75" fill="none" xmlns="http://www.w3.org/2000/svg">
<path d="M53.1103 68.0396H19.0634C18.5007 68.0396 18.0083 68.5367 18.0083 69.1049C18.0083 69.6731 18.5007 70.1702 19.0634 70.1702H53.1807C53.7434 70.1702 54.2359 69.6731 54.2359 69.1049C54.1655 68.4657 53.6731 68.0396 53.1103 68.0396Z" fill="#ECECEC"/>
<path d="M84.3435 72.8691H50.2262C49.6635 72.8691 49.1711 73.3663 49.1711 73.9345C49.1711 74.5027 49.6635 74.9998 50.2262 74.9998H84.3435C84.9062 74.9998 85.3986 74.5027 85.3986 73.9345C85.3283 73.3663 84.9062 72.8691 84.3435 72.8691Z" fill="#ECECEC"/>
<path d="M78.5752 62.2869H14.069V62.0739C5.97931 60.7955 0 53.7642 0 45.3835C0 36.6477 6.54207 29.4034 15.0538 28.5511C16.32 12.5 29.6855 0 45.7945 0C56.909 0 67.109 6.03693 72.5959 15.767C74.5655 15.2699 76.5352 14.9858 78.5048 14.9858C91.4483 14.9858 101.93 25.5682 101.93 38.6364C101.93 51.7046 91.4483 62.2869 78.5752 62.2869ZM15.9683 60.1563H78.5048C90.2524 60.1563 99.8193 50.4972 99.8193 38.6364C99.8193 26.7756 90.2524 17.1165 78.5048 17.1165C76.3945 17.1165 74.3545 17.4006 72.3848 18.0398L71.5407 18.3239L71.1186 17.5426C66.1241 8.02557 56.4165 2.13068 45.7945 2.13068C30.4593 2.13068 17.8676 14.2045 17.0938 29.6165L17.0234 30.6108L16.0386 30.6818C8.23034 31.0369 2.11034 37.5 2.11034 45.3835C2.11034 52.983 7.73793 59.304 15.2648 60.0852L15.9683 60.1563Z" fill="#ECECEC"/>
<path d="M25.1131 26.1365L23.0731 25.4973C26.3793 14.4888 36.6497 6.81836 48.0455 6.81836V8.94904C37.5642 8.94904 28.1379 15.9803 25.1131 26.1365Z" fill="#ECECEC"/>
</svg>
