<svg width="96" height="110" viewBox="0 0 96 110" fill="none" xmlns="http://www.w3.org/2000/svg">
<g clip-path="url(#clip0)">
<path d="M76.9716 93.8762H48.5007V91.7264H77.0432C80.4769 91.7264 83.2667 88.3583 83.2667 84.202V11.8958C83.2667 6.95114 86.5573 3.94137 89.5618 2.14984H29.4724C26.0387 2.14984 23.2488 5.51792 23.2488 9.67427V55.3941H21.1028V9.67427C21.1028 4.29967 24.8941 0 29.4724 0H94.9269C95.4992 0 95.9284 0.429967 96 0.931596C96.0715 1.50489 95.7138 2.00651 95.1415 2.07818C95.07 2.07818 85.3412 4.37134 85.3412 11.8958V84.202C85.3412 89.5049 81.6214 93.8762 76.9716 93.8762Z" fill="#ECECEC"/>
<path d="M54.5097 14.9058H35.6245V17.0556H54.5097V14.9058Z" fill="#ECECEC"/>
<path d="M68.316 21.2119H35.6245V23.3618H68.316V21.2119Z" fill="#ECECEC"/>
<path d="M54.5097 40.4888H35.6245V42.6386H54.5097V40.4888Z" fill="#ECECEC"/>
<path d="M68.316 46.7949H35.6245V48.9448H68.316V46.7949Z" fill="#ECECEC"/>
<path d="M72.2504 63.707H53.3651V65.8569H72.2504V63.707Z" fill="#ECECEC"/>
<path d="M66.9568 70.0132H53.3651V72.163H66.9568V70.0132Z" fill="#ECECEC"/>
<path d="M44.2802 71.2314C44.2802 71.088 44.3517 70.9447 44.3517 70.873C44.3517 70.7297 44.3517 70.6581 44.2802 70.5147V65.2118C44.2802 65.0685 44.3517 64.9252 44.3517 64.8535C44.3517 64.6385 44.2802 64.4235 44.2086 64.2085C44.0656 63.7786 43.7794 63.4203 43.4218 63.2053C40.4888 60.6971 31.1177 60.6255 29.9016 60.6255C28.6855 60.6255 19.3145 60.6971 16.3815 63.2053C16.0238 63.4203 15.7377 63.7786 15.5946 64.2085C15.5231 64.4235 15.4516 64.6385 15.4516 64.8535C15.4516 64.9968 15.4516 65.1401 15.5231 65.2118V70.4431C15.5231 70.5864 15.4516 70.6581 15.4516 70.8014C15.4516 70.9447 15.4516 71.088 15.5231 71.1597V76.8926C15.5231 76.8926 15.5231 76.8926 15.5231 76.9643C15.5231 77.1792 15.5231 77.3942 15.5946 77.5375C15.5231 77.7525 15.4516 77.9675 15.4516 78.1825C15.4516 78.3258 15.4516 78.4691 15.5231 78.5408V81.6222C15.0224 81.5506 14.5931 81.5506 14.0924 81.5506C6.29508 81.6222 0 88.0001 0 95.8112C0 103.622 6.29508 110 14.0924 110C20.2444 110 25.4665 105.987 27.3979 100.469C28.3279 100.541 29.1863 100.541 29.9016 100.541C34.1937 100.541 44.2802 100.111 44.2802 95.8112C44.2802 95.8112 44.2802 95.8112 44.2802 95.7395V90.0066C44.2802 89.8633 44.3517 89.7199 44.3517 89.6483C44.3517 89.505 44.3517 89.4333 44.2802 89.29V84.5603C44.2802 84.417 44.3517 84.2737 44.3517 84.202C44.3517 84.0587 44.3517 83.9871 44.2802 83.8437V78.6125C44.2802 78.4691 44.3517 78.3258 44.3517 78.2542C44.3517 78.0392 44.2802 77.8242 44.2086 77.6092C44.2802 77.3942 44.2802 77.2509 44.2802 77.0359C44.2802 77.0359 44.2802 77.0359 44.2802 76.9643V71.2314ZM29.9016 62.632C37.1267 62.632 41.6334 63.9936 42.3487 64.8535C41.5618 65.7134 37.1267 67.075 29.9016 67.075C22.6766 67.075 18.1699 65.7134 17.4545 64.8535C18.1699 63.9936 22.6766 62.632 29.9016 62.632ZM14.0924 108.137C7.29657 108.137 1.78838 102.619 1.78838 95.7395C1.78838 88.9317 7.29657 83.3421 14.0924 83.3421C20.8882 83.3421 26.3964 88.86 26.3964 95.7395C26.3964 102.619 20.8882 108.137 14.0924 108.137ZM42.6349 95.6678V95.7395C42.6349 95.7395 42.6349 95.7395 42.6349 95.8112C42.5633 97.3877 36.8405 98.6776 29.9016 98.6776C29.1863 98.6776 28.5425 98.6776 27.8987 98.6059C28.1133 97.6744 28.1848 96.7428 28.1848 95.7395C28.1848 95.5245 28.1848 95.2379 28.1848 95.0229C28.8286 95.0229 29.4009 95.0229 29.9732 95.0229C33.1922 95.0229 39.7019 94.7362 42.7064 92.8014V95.6678H42.6349ZM42.6349 90.2216V90.2932C42.6349 90.2932 42.6349 90.2932 42.6349 90.3649C42.5633 91.9414 36.8405 93.2314 29.9016 93.2314C29.2578 93.2314 28.5425 93.2313 27.8987 93.1597C27.6125 91.6548 27.1118 90.2216 26.3964 88.9317C27.6841 89.0033 28.9001 89.0033 29.9016 89.0033C33.1207 89.0033 39.6304 88.7167 42.6349 86.7818V90.2216ZM42.6349 84.2737V84.3454C42.6349 84.3454 42.6349 84.3454 42.6349 84.417C42.5633 85.9936 36.8405 87.2835 29.9016 87.2835C28.2563 87.2835 26.611 87.2118 25.1803 87.0685C23.1773 84.5603 20.3875 82.6972 17.1684 81.9805V80.4757C20.7452 82.4822 28.7571 82.5538 29.9016 82.5538C31.0462 82.5538 39.0581 82.4822 42.6349 80.4757V84.2737ZM42.6349 76.8926V76.9643C42.6349 76.9643 42.6349 76.9643 42.6349 77.0359C42.5633 78.6125 36.8405 79.9024 29.9016 79.9024C22.8912 79.9024 17.2399 78.6125 17.1684 77.0359V76.9643V76.8926V73.5962C20.1729 75.531 26.6826 75.8177 29.9016 75.8177C33.1207 75.8177 39.6304 75.531 42.6349 73.5962V76.8926ZM42.6349 70.873V70.9447C42.6349 70.9447 42.6349 70.9447 42.6349 71.0164C42.5633 72.5929 36.8405 73.8828 29.9016 73.8828C22.8912 73.8828 17.2399 72.5929 17.1684 71.0164V70.9447V70.873V67.075C20.7452 69.0815 28.7571 69.1532 29.9016 69.1532C31.0462 69.1532 39.0581 69.0815 42.6349 67.075V70.873ZM14.0924 86.2086C8.87034 86.2086 4.57824 90.5082 4.57824 95.7395C4.57824 101.042 8.87034 105.27 14.0924 105.27C19.3145 105.27 23.6066 100.971 23.6066 95.7395C23.6066 90.5082 19.3145 86.2086 14.0924 86.2086ZM14.0924 104.124C9.51416 104.124 5.79434 100.397 5.79434 95.7395C5.79434 91.1532 9.51416 87.3551 14.0924 87.3551C18.6706 87.3551 22.3905 91.0815 22.3905 95.7395C22.3905 100.397 18.6706 104.124 14.0924 104.124Z" fill="#ECECEC"/>
</g>
<defs>
<clipPath id="clip0">
<rect width="96" height="110" fill="white"/>
</clipPath>
</defs>
</svg>
