<svg width="61" height="45" viewBox="0 0 61 45" fill="none" xmlns="http://www.w3.org/2000/svg">
<path d="M26 29.3H7.40002V31.3H26V29.3Z" fill="black"/>
<path d="M21.9 34.3H7.40002V36.3H21.9V34.3Z" fill="black"/>
<path d="M55.1 45H5.9C2.7 45 0 42.3 0 39.1V5.9C0 2.7 2.7 0 5.9 0H55.1C58.3 0 61 2.7 61 5.9V39.1C61 42.3 58.3 45 55.1 45ZM5.9 2C3.8 2 2 3.8 2 5.9V39.1C2 41.2 3.8 43 5.9 43H55.1C57.3 43 59 41.2 59 39.1V5.9C59 3.8 57.2 2 55.1 2H5.9Z" fill="black"/>
<path d="M60 9H1C0.4 9 0 8.6 0 8C0 7.4 0.4 7 1 7H60C60.6 7 61 7.4 61 8C61 8.6 60.6 9 60 9Z" fill="black"/>
<path d="M60 19H1C0.4 19 0 18.6 0 18C0 17.4 0.4 17 1 17H60C60.6 17 61 17.4 61 18C61 18.6 60.6 19 60 19Z" fill="black"/>
</svg>
