<svg width="101" height="144" viewBox="0 0 101 144" fill="none" xmlns="http://www.w3.org/2000/svg">
<path d="M0 125.381C12.6994 138.256 31.3517 144 48.4165 144C83.9352 144 101 119.835 101 95.6699C101 75.8624 87.7053 59.2242 66.6719 54.6685L95.444 21.5901V0H5.95285V29.7111H39.8841C48.8134 29.7111 53.3772 28.7208 53.3772 28.7208V29.1169C53.3772 29.1169 47.8212 34.2668 41.0747 42.3879L22.4224 64.7703L29.7642 81.6066H39.6857C54.9646 81.6066 66.0766 86.1623 66.0766 97.2545C66.0766 104.979 58.7348 111.318 45.8369 111.318C34.9234 111.318 23.8114 105.574 16.668 98.641L0 125.381Z" fill="#FFD80B"/>
</svg>
