<svg width="28" height="33" viewBox="0 0 28 33" fill="none" xmlns="http://www.w3.org/2000/svg">
<g clip-path="url(#clip0)">
<path d="M13.9541 17.7119C18.7707 17.7119 22.6754 13.7469 22.6754 8.85593C22.6754 3.96494 18.7707 0 13.9541 0C9.13745 0 5.23279 3.96494 5.23279 8.85593C5.23279 13.7469 9.13745 17.7119 13.9541 17.7119Z" fill="white"/>
<path d="M13.9541 33.0001C19.5541 33.0001 24.5115 30.5763 27.9082 26.6611C27.2656 23.0255 25.2459 19.856 22.4 17.7119C20.1967 19.856 17.1672 21.2543 13.8623 21.2543C10.5574 21.2543 7.71148 19.856 5.5082 17.7119C2.6623 19.856 0.642623 23.0255 0 26.6611C3.48853 30.4831 8.4459 33.0001 13.9541 33.0001Z" fill="white"/>
</g>
<defs>
<clipPath id="clip0">
<rect width="28" height="33" fill="white"/>
</clipPath>
</defs>
</svg>
