<svg width="34" height="13" viewBox="0 0 34 13" fill="none" xmlns="http://www.w3.org/2000/svg">
<path d="M33.84 0.143996C33.6366 -0.0429485 33.3169 -0.0429485 33.128 0.172756C33.0554 0.230278 25.7905 7.76556 17 7.76556C8.22403 7.76556 0.944628 0.230278 0.871979 0.158376C0.683093 -0.0429485 0.363438 -0.0573288 0.160022 0.143996C-0.0433948 0.33094 -0.0579246 0.647307 0.145492 0.848631C0.334379 1.04996 3.16768 3.98354 7.46849 6.22687L5.02749 9.50558C4.86766 9.73567 4.91125 10.0377 5.1292 10.2102C5.21637 10.2821 5.33261 10.3109 5.43432 10.3109C5.59415 10.3109 5.73945 10.239 5.84115 10.1096L8.34027 6.75894C8.3548 6.74456 8.36933 6.7158 8.36933 6.70142C9.41547 7.20473 10.5488 7.65052 11.7257 7.99565L9.9676 11.6626C9.85136 11.9071 9.95307 12.2091 10.2146 12.3385C10.2873 12.3673 10.3599 12.3816 10.4326 12.3816C10.6214 12.3816 10.8103 12.281 10.8975 12.094L12.7137 8.3264C12.7283 8.29764 12.7428 8.26888 12.7428 8.24011C13.9923 8.5421 15.3 8.72905 16.6513 8.75781V12.4967C16.6513 12.7699 16.8838 13 17.1598 13C17.4359 13 17.6684 12.7699 17.6684 12.4967V8.75781C19.0487 8.70028 20.3854 8.48458 21.6495 8.15383C21.6495 8.21135 21.6641 8.26888 21.6931 8.3264L23.5093 12.094C23.5965 12.281 23.7854 12.3816 23.9743 12.3816C24.0469 12.3816 24.1196 12.3673 24.1922 12.3385C24.4392 12.2235 24.5555 11.9215 24.4392 11.6626L22.623 7.89499C22.623 7.89499 22.623 7.88061 22.6085 7.88061C23.7999 7.50672 24.9187 7.04655 25.9649 6.52886C25.9794 6.60076 26.0084 6.67266 26.052 6.74456L28.5512 10.0952C28.6529 10.2246 28.7982 10.2965 28.958 10.2965C29.0597 10.2965 29.1614 10.2677 29.2631 10.1958C29.4956 10.0377 29.5392 9.72129 29.3648 9.4912L26.8657 6.14059C26.8512 6.11183 26.8366 6.09745 26.8076 6.08307C30.9486 3.8685 33.6802 1.04996 33.8545 0.848631C34.0579 0.647307 34.0434 0.33094 33.84 0.143996Z" fill="#DADADA"/>
</svg>
