<svg width="34" height="16" viewBox="0 0 34 16" fill="none" xmlns="http://www.w3.org/2000/svg">
<path d="M17 1.03704C21.5683 1.03704 25.7172 3.11111 28.3982 4.84444C30.2555 6.04444 31.6934 7.25926 32.5022 8C30.4203 9.8963 24.2194 14.963 17 14.963C12.4317 14.963 8.28282 12.8889 5.60176 11.1556C3.74449 9.95556 2.30661 8.74074 1.4978 8C3.57974 6.1037 9.7956 1.03704 17 1.03704ZM17 0C7.60881 0 0 8 0 8C0 8 7.60881 16 17 16C26.3912 16 34 8 34 8C34 8 26.3912 0 17 0Z" fill="#DADADA"/>
<path d="M16.9999 3.55559C19.4712 3.55559 21.4932 5.55559 21.4932 8.00004C21.4932 10.4445 19.4712 12.4445 16.9999 12.4445C14.5285 12.4445 12.5065 10.4445 12.5065 8.00004C12.5065 5.55559 14.5285 3.55559 16.9999 3.55559ZM16.9999 2.51855C13.9444 2.51855 11.458 4.97781 11.458 8.00004C11.458 11.0223 13.9444 13.4815 16.9999 13.4815C20.0554 13.4815 22.5417 11.0223 22.5417 8.00004C22.5417 4.97781 20.0554 2.51855 16.9999 2.51855Z" fill="#DADADA"/>
</svg>
