<svg width="100" height="16" viewBox="0 0 100 16" fill="none" xmlns="http://www.w3.org/2000/svg">
<g clip-path="url(#clip0)">
<path d="M21.3741 2.41916L22.3965 0H20.2329V2.41916H21.3741Z" fill="#BE8F2D"/>
<path d="M22.872 13.9161L21.279 3.64062H20.2329V15.976L22.872 13.9161Z" fill="#BE8F2D"/>
<path d="M19.1155 2.41916H20.2329V0H18.0693L19.1155 2.41916Z" fill="#E5B828"/>
<path d="M17.594 13.8203L20.2093 15.9999L20.2331 15.976V3.64062H19.0681L17.594 13.8203Z" fill="#E5B828"/>
<path d="M53.376 10.3233L51.1649 3.6167H49.3342L47.123 10.2993L44.9595 3.64065H42.4868L42.5106 3.68856H42.4868L46.1245 14.2035H48.0027L50.2376 7.64065V7.59275L52.4725 14.1796H54.327L57.9885 3.64065H55.5634L53.376 10.3233Z" fill="#7E7E7E"/>
<path d="M64.6219 3.44922C63.1003 3.44922 61.7926 4.00012 60.7703 5.05401C59.7479 6.1079 59.2249 7.40131 59.2249 8.88634C59.2249 10.3714 59.7479 11.6648 60.7465 12.7187C61.7688 13.7726 63.0527 14.3235 64.5743 14.3235C66.096 14.3235 67.4036 13.7726 68.426 12.7187C69.4483 11.6648 69.9952 10.3714 69.9952 8.88634C69.9952 7.40131 69.4721 6.1079 68.4498 5.05401C67.4512 3.97617 66.1435 3.44922 64.6219 3.44922ZM66.7855 11.2097C66.2149 11.8325 65.5016 12.1438 64.6219 12.1438C63.766 12.1438 63.0527 11.8325 62.4583 11.2097C61.8639 10.563 61.5786 9.82048 61.5786 8.88634C61.5786 7.95221 61.8639 7.18575 62.4346 6.53904C63.0052 5.91628 63.6947 5.60491 64.5981 5.60491C65.454 5.60491 66.1673 5.91628 66.7617 6.53904C67.3561 7.18575 67.6652 7.95221 67.6652 8.86239C67.6652 9.82048 67.3799 10.5869 66.7855 11.2097Z" fill="#7E7E7E"/>
<path d="M75.8439 4.2636C75.5349 4.47916 75.2496 4.74264 75.0118 5.03006V3.64084H72.7056V14.084H75.0118V9.84443C75.0118 8.57497 75.3209 7.59294 75.9628 6.92228C76.581 6.25162 77.3656 5.91629 78.3166 5.91629H78.8872V3.49713L78.4593 3.47318C77.4607 3.44922 76.6048 3.7127 75.8439 4.2636Z" fill="#7E7E7E"/>
<path d="M87.922 3.64084L83.4522 8.33545V3.44922H81.146V14.1079H83.4522V11.3295L84.8788 9.89233L88.0885 14.1079H90.9178L86.4955 8.23964L90.9415 3.64084H87.922Z" fill="#7E7E7E"/>
<path d="M99.7147 9.65276C99.5245 9.26952 99.2154 8.95815 98.8112 8.69467C98.4546 8.47911 98.1217 8.28749 97.8127 8.16773C97.5036 8.04797 97.1232 7.90426 96.6714 7.76054C96.3386 7.64078 96.077 7.56893 95.9106 7.52102C95.768 7.47312 95.5777 7.40126 95.3162 7.30545C95.0309 7.18569 94.8883 7.08988 94.8407 7.06593C94.7456 6.99408 94.6743 6.89827 94.603 6.80246C94.5554 6.7306 94.5316 6.65875 94.5316 6.58689C94.5316 6.29947 94.6267 6.10785 94.8645 5.91623C95.126 5.72462 95.4589 5.60485 95.9106 5.60485C96.7428 5.60485 97.5987 5.89228 98.4546 6.44318L98.8588 6.70665L99.9762 4.86234L99.6196 4.62282C98.5021 3.8803 97.2658 3.49707 95.9582 3.49707C94.912 3.49707 94.0323 3.7845 93.3429 4.35935C92.6296 4.95815 92.273 5.72461 92.273 6.6827C92.273 7.18569 92.3681 7.64078 92.582 8.02402C92.796 8.40725 93.1051 8.74258 93.5331 8.9821C93.9135 9.19767 94.2463 9.36533 94.5554 9.48509C94.8407 9.60485 95.2449 9.72461 95.7442 9.86833C96.4812 10.0839 97.0518 10.2995 97.4085 10.515C97.67 10.6587 97.7889 10.8504 97.7889 11.1138C97.7889 11.4492 97.67 11.6887 97.4085 11.8803C97.1232 12.0959 96.7428 12.2156 96.2672 12.2156C95.2687 12.2156 94.2463 11.8324 93.2715 11.0899L92.8911 10.8025L91.6548 12.551L91.9876 12.8144C92.5583 13.2695 93.224 13.6528 93.961 13.9162C94.6981 14.1797 95.4589 14.3234 96.1959 14.3234C97.2658 14.3234 98.1693 14.036 98.9063 13.4611C99.6434 12.8623 100.024 12.048 100.024 11.018C100 10.4671 99.9049 10.036 99.7147 9.65276Z" fill="#7E7E7E"/>
<path d="M10.8892 10.3233L8.67808 3.6167H6.84736L4.63623 10.2993L2.47266 3.64065H0L3.63766 14.1796H5.51593L7.75083 7.59275L9.98573 14.1796H11.8402L15.5017 3.64065H13.0766L10.8892 10.3233Z" fill="#7E7E7E"/>
<path d="M32.9291 3.64062L28.4831 8.33524V3.64062H26.1531V14.1077H28.4831V11.3292L29.9096 9.89212L33.0955 14.1077H35.9248L31.5026 8.23943L35.9724 3.64062H32.9291Z" fill="#7E7E7E"/>
<path d="M40.1806 3.64062H37.6604V6.13164H40.1806V3.64062Z" fill="#7E7E7E"/>
<path d="M40.0618 7.28125H37.7556V14.0836H40.0618V7.28125Z" fill="#7E7E7E"/>
</g>
<defs>
<clipPath id="clip0">
<rect width="100" height="16" fill="white"/>
</clipPath>
</defs>
</svg>
