<svg width="21" height="13" viewBox="0 0 21 13" fill="none" xmlns="http://www.w3.org/2000/svg">
<path d="M20.1645 1.53113C19.9797 1.52308 19.795 1.54724 19.6102 1.54724C18.614 1.55529 17.6178 1.55529 16.6217 1.55529C16.3244 1.55529 16.1396 1.70831 16.0191 1.98214C15.7781 2.52979 15.5532 3.08549 15.2881 3.61704C14.8382 4.53516 14.308 5.41301 13.6572 6.21033C13.4966 6.41167 13.2957 6.5808 13.1029 6.74187C12.8539 6.95127 12.5084 6.83046 12.3959 6.46804C12.3076 6.18617 12.2513 5.88013 12.2594 5.58214C12.2674 4.55932 12.3076 3.52845 12.3156 2.50563C12.3156 2.22375 12.2594 1.94187 12.2031 1.65999C12.1549 1.39422 11.9702 1.23315 11.7211 1.18482C11.3757 1.11234 11.0302 1.04791 10.6848 1.0318C9.785 0.975428 8.88523 0.983482 7.9935 1.11234C7.61591 1.16872 7.3026 1.32174 7.06159 1.61167C6.92502 1.77274 6.94109 1.82912 7.14193 1.86939C7.80872 2.01435 8.05777 2.28818 8.18631 3.04523C8.33091 3.92308 8.32288 4.79288 8.21041 5.67073C8.1622 6.01704 8.13007 6.36335 7.94529 6.66939C7.84086 6.83046 7.66412 6.93516 7.48738 6.86268C7.28653 6.77409 7.08569 6.66133 6.92502 6.51637C6.49924 6.12979 6.21002 5.64657 5.94491 5.13919C5.50306 4.3016 5.08531 3.45596 4.66756 2.61033C4.58722 2.44925 4.51492 2.27207 4.45065 2.10294C4.29801 1.71637 3.99273 1.53113 3.59908 1.53113C2.61094 1.51503 1.6228 1.53919 0.63466 1.54724C0.377582 1.54724 0.15264 1.61972 0 1.84523C0 1.93382 0 2.02241 0 2.111C0.490054 3.14187 0.956006 4.1808 1.47016 5.19556C1.83971 5.92845 2.26549 6.62912 2.69128 7.33784C3.30987 8.36872 4.04093 9.3271 4.80413 10.2533C5.23795 10.7848 5.76014 11.2278 6.33856 11.5902C6.82862 11.8962 7.3267 12.2023 7.84889 12.4519C8.49962 12.758 9.19855 12.9191 9.92158 12.9352C10.4839 12.9432 11.0383 12.9432 11.6006 12.911C12.0425 12.8868 12.2433 12.6372 12.2754 12.1942C12.2995 11.8399 12.3236 11.4935 12.3879 11.1472C12.4522 10.809 12.6048 10.5191 12.886 10.2935C13.0627 10.1486 13.2395 10.1405 13.4323 10.2291C13.7938 10.3982 14.0509 10.6801 14.308 10.9701C14.7016 11.3969 15.0792 11.8399 15.4889 12.2506C15.9308 12.6855 16.461 12.9754 17.0956 12.9835C17.6741 12.9996 18.2605 12.9593 18.8389 12.9432C19.3049 12.9352 19.7628 12.9271 20.2288 12.9029C20.6706 12.8868 20.8634 12.7419 21 12.3311C21 12.307 21 12.2828 21 12.2667C20.8474 11.4855 20.3252 10.9298 19.811 10.3821C19.2728 9.80227 18.6943 9.25462 18.132 8.69892C18.0275 8.59422 17.9231 8.48147 17.8267 8.36872C17.5054 7.97408 17.4813 7.59556 17.7785 7.18482C18.2766 6.49221 18.7827 5.8157 19.2888 5.13113C19.8191 4.41435 20.3493 3.70563 20.7349 2.90026C20.8393 2.68281 20.9116 2.44925 21 2.2157C21 2.111 21 2.01435 21 1.90966C20.8313 1.55529 20.4939 1.54724 20.1645 1.53113Z" fill="white"/>
</svg>
