<svg width="106" height="39" viewBox="0 0 106 39" fill="none" xmlns="http://www.w3.org/2000/svg">
<g clip-path="url(#clip0)">
<path d="M98.5352 36.0454H106V39H98.5352V36.0454Z" fill="#DADADA"/>
<path d="M0 28.6592H11.9437V31.6137H0V28.6592Z" fill="#DADADA"/>
<path d="M39.7127 39H88.0845V36.0455H74.9465C76.2901 33.6818 76.8873 30.2841 76.8873 27.7727C76.8873 20.2386 70.9155 14.1818 63.6 14.1818C61.5099 14.1818 59.7183 14.625 58.0761 15.3636C56.4338 6.5 48.8197 0 39.7127 0C29.4113 0 21.0507 8.27273 21.0507 18.4659C21.0507 23.1932 22.693 28.2159 25.3803 31.3182C27.3211 33.5341 32.5465 39 39.7127 39ZM72.5577 36.0455H39.862C34.0394 36.0455 29.4113 31.3182 27.769 29.3977C25.6789 26.8864 24.1859 22.4545 24.1859 18.4659C24.0366 9.89773 31.0535 2.95455 39.7127 2.95455C48.0732 2.95455 54.9408 9.45455 55.2394 17.7273L55.3887 20.3864L57.6282 18.7614C59.2704 17.5795 61.3606 16.9886 63.6 16.9886C69.2732 16.9886 73.9014 21.7159 73.9014 27.625C73.9014 29.9886 73.1549 33.5341 71.8113 35.3068L72.5577 36.0455Z" fill="#DADADA"/>
</g>
<defs>
<clipPath id="clip0">
<rect width="106" height="39" fill="white" transform="matrix(-1 0 0 1 106 0)"/>
</clipPath>
</defs>
</svg>
